<svg viewBox="0 0 51 40" fill="none" xmlns="http://www.w3.org/2000/svg">
<rect x="16" y="9" width="18" height="22" fill="white"/>
<path fill-rule="evenodd" clip-rule="evenodd" d="M10.4355 0C7.56871 0 5.44745 2.5077 5.54244 5.22723C5.6336 7.83997 5.51516 11.2238 4.66281 13.9834C3.80742 16.7507 2.36178 18.5043 0 18.7294V21.2706C2.36178 21.4962 3.80742 23.2489 4.66271 26.0166C5.51516 28.7762 5.6335 32.16 5.54234 34.7728C5.44735 37.4919 7.56861 40 10.4359 40H39.8106C42.6773 40 44.7982 37.4923 44.7032 34.7728C44.612 32.16 44.7305 28.7762 45.5828 26.0166C46.4382 23.2489 47.8803 21.4955 50.2422 21.2706V18.7294C47.8804 18.5038 46.4383 16.7511 45.5828 13.9834C44.7304 11.2242 44.612 7.83997 44.7032 5.22723C44.7982 2.50809 42.6773 0 39.8106 0H10.4355ZM34.0625 24.6226C34.0625 28.3673 31.2677 30.6383 26.6296 30.6383H18.7344C18.5085 30.6383 18.2919 30.5487 18.1322 30.3891C17.9725 30.2295 17.8828 30.013 17.8828 29.7873V10.2128C17.8828 9.9871 17.9725 9.77063 18.1322 9.61102C18.2919 9.45141 18.5085 9.36175 18.7344 9.36175H26.5847C30.4521 9.36175 32.9902 11.4554 32.9902 14.6698C32.9902 16.9259 31.2827 18.9457 29.1075 19.2996V19.4173C32.0687 19.7419 34.0625 21.7916 34.0625 24.6226ZM25.7688 12.0596H21.267V18.4147H25.0586C27.9897 18.4147 29.6059 17.2351 29.6059 15.1266C29.6056 13.1507 28.2161 12.0596 25.7688 12.0596ZM21.267 20.9362V27.9396H25.9344C28.9862 27.9396 30.6027 26.7158 30.6027 24.4158C30.6027 22.1158 28.9409 20.9358 25.7381 20.9358L21.267 20.9362Z" fill="#7108F5"/>
</svg>
