<svg viewBox="0 0 70 42" fill="black" xmlns="http://www.w3.org/2000/svg">
<path d="M70 39.9367C67.4537 40.5904 65.8787 39.9654 64.4656 37.8233L54.4162 23.7864L52.9637 21.843L41.2278 37.8696C39.8869 39.7976 38.4803 40.6368 35.9778 39.9544L51.0059 19.5882L37.0147 1.1919C39.4209 0.719299 41.0834 0.960018 42.56 3.13533L52.9834 17.3466L63.4834 3.21263C64.8287 1.28466 66.2747 0.551458 68.6897 1.26257L63.2647 8.52392L55.9147 18.1858C55.0397 19.2901 55.16 20.0453 55.965 21.112L70 39.9367ZM0.0175 19.2481L1.24687 13.144C4.59375 1.06382 18.3094 -3.95596 27.7681 3.50856C33.2959 7.89893 34.6697 14.1091 34.3962 21.0656H3.2375C2.76938 33.5875 11.6966 41.1448 23.0781 37.2888C27.0703 35.935 29.4219 32.7792 30.5987 28.8305C31.1959 26.8517 32.1847 26.5426 34.0266 27.1079C33.0859 32.046 30.9641 36.1714 26.4797 38.753C19.7794 42.6178 10.2156 41.3678 5.18437 35.9969C2.1875 32.8808 0.949375 28.9321 0.39375 24.7096C0.30625 24.0117 0.13125 23.347 0 22.6778C0.0116667 21.5353 0.0175 20.3928 0.0175 19.2503V19.2481ZM3.29438 18.4089H31.4519C31.2681 9.35429 25.6834 2.92332 18.0512 2.86811C9.67312 2.80186 3.6575 9.08044 3.29438 18.4089V18.4089Z" />
</svg>
