<svg viewBox="0 0 28 41" fill="none" xmlns="http://www.w3.org/2000/svg">
<path d="M6.97328 40.9026C10.6932 40.9026 13.7122 37.8836 13.7122 34.1637V27.4248H6.97328C3.25341 27.4248 0.234375 30.4438 0.234375 34.1637C0.234375 37.8836 3.25341 40.9026 6.97328 40.9026Z" fill="#0ACF83"/>
<path d="M0.234375 20.6861C0.234375 16.9662 3.25341 13.9472 6.97328 13.9472H13.7122V27.425H6.97328C3.25341 27.425 0.234375 24.406 0.234375 20.6861Z" fill="#A259FF"/>
<path d="M0.234375 7.20823C0.234375 3.48835 3.25341 0.469322 6.97328 0.469322H13.7122V13.9471H6.97328C3.25341 13.9471 0.234375 10.9281 0.234375 7.20823Z" fill="#F24E1E"/>
<path d="M13.7119 0.469322H20.4508C24.1707 0.469322 27.1897 3.48835 27.1897 7.20823C27.1897 10.9281 24.1707 13.9471 20.4508 13.9471H13.7119V0.469322Z" fill="#FF7262"/>
<path d="M27.1897 20.6861C27.1897 24.406 24.1707 27.425 20.4508 27.425C16.7309 27.425 13.7119 24.406 13.7119 20.6861C13.7119 16.9662 16.7309 13.9472 20.4508 13.9472C24.1707 13.9472 27.1897 16.9662 27.1897 20.6861Z" fill="#1ABCFE"/>
</svg>
