<svg viewBox="0 0 30 41" fill="none" xmlns="http://www.w3.org/2000/svg">
<path d="M19.3954 14.7632L15.3483 18.5291L11.5928 10.9542L13.536 6.59813C14.0279 5.72486 14.8304 5.72319 15.3223 6.59813L19.3954 14.7632Z" fill="#FFA000"/>
<path d="M15.3474 18.529L0.223633 32.5983L11.5919 10.9541L15.3474 18.529Z" fill="#F57F17"/>
<path d="M23.8215 9.00711C24.5445 8.31217 25.292 8.5492 25.4825 9.53385L29.4191 32.4098L16.3694 40.2308C15.9127 40.483 14.7034 40.5924 14.7034 40.5924C14.7034 40.5924 13.5996 40.4604 13.1789 40.2269L0.223633 32.5975L23.8215 9.00711Z" fill="#FFCA28"/>
<path d="M11.5919 10.9541L0.223633 32.5983L5.28726 0.964776C5.47372 -0.0206591 6.03466 -0.11556 6.53512 0.754256L11.5919 10.9541Z" fill="#FFA000"/>
</svg>
