<svg viewBox="0 0 42 41" fill="none" xmlns="http://www.w3.org/2000/svg">
<path d="M40.5862 18.598C40.5845 18.598 40.5845 18.5972 40.5845 18.5972L22.8966 0.89774C21.9424 -0.0587576 20.2725 -0.057935 19.3215 0.896918L1.63031 18.598C1.15484 19.0762 0.891602 19.7109 0.891602 20.385C0.891602 21.06 1.15484 21.6953 1.63196 22.1728L19.3199 39.8722C19.797 40.3505 20.432 40.6139 21.1082 40.6139C21.7844 40.6139 22.4195 40.3505 22.895 39.873L40.5845 22.1728C41.0616 21.6953 41.3249 21.06 41.3249 20.385C41.3249 19.7109 41.0616 19.0762 40.5862 18.598Z" fill="#EF473B"/>
<path opacity="0.1" d="M40.787 21.5595L22.9132 39.4441C22.4327 39.9265 21.791 40.1927 21.1078 40.1927C20.4246 40.1927 19.7829 39.9265 19.3008 39.4433L1.42865 21.5595C1.21981 21.3505 1.06022 21.1074 0.936523 20.8481C1.02845 21.3468 1.26557 21.8066 1.63153 22.1728L19.3194 39.8722C19.7966 40.3504 20.4316 40.6139 21.1078 40.6139C21.784 40.6139 22.4191 40.3504 22.8945 39.873L40.5841 22.1728C40.9501 21.8066 41.1873 21.3468 41.2792 20.8481C41.1555 21.1074 40.9958 21.3505 40.787 21.5595Z" fill="#010101"/>
<path d="M29.5316 17.0278C28.9 17.0278 28.3153 17.2132 27.8095 17.5168L23.9884 13.6958C24.2919 13.1901 24.4774 12.6053 24.4774 11.9736C24.4774 10.1154 22.9655 8.60421 21.108 8.60421C20.4849 8.60421 19.908 8.7858 19.4067 9.08194L15.2729 4.94757L14.082 6.13903L18.2158 10.2733C17.9201 10.7743 17.7386 11.3508 17.7386 11.9736C17.7386 13.5393 18.8168 14.8467 20.2656 15.2234V25.5711C18.8168 25.9477 17.7386 27.2552 17.7386 28.8208C17.7386 30.6791 19.2505 32.1903 21.108 32.1903C22.9655 32.1903 24.4774 30.6791 24.4774 28.8208C24.4774 27.2552 23.3992 25.9477 21.9504 25.5711V15.2234C22.2482 15.146 22.5274 15.0282 22.7875 14.8772L26.6281 18.7178C26.3396 19.2142 26.1622 19.7829 26.1622 20.3972C26.1622 22.2555 27.6741 23.7667 29.5316 23.7667C31.3891 23.7667 32.901 22.2555 32.901 20.3972C32.901 18.539 31.3891 17.0278 29.5316 17.0278Z" fill="white"/>
<path opacity="0.2" d="M1.63031 19.0192L19.3215 1.3181C20.2725 0.363245 21.9424 0.362422 22.8966 1.31892L40.5845 19.0183C40.5845 19.0183 40.5845 19.0192 40.5862 19.0192C41.0113 19.4467 41.255 20.0018 41.3043 20.5957C41.3102 20.5252 41.3249 20.4566 41.3249 20.385C41.3249 19.7109 41.0616 19.0762 40.5862 18.598C40.5845 18.598 40.5845 18.5972 40.5845 18.5972L22.8966 0.89774C21.9424 -0.0587576 20.2725 -0.057935 19.3215 0.896918L1.63031 18.598C1.15484 19.0762 0.891602 19.7109 0.891602 20.385C0.891602 20.4565 0.906306 20.5251 0.912167 20.5955C0.961627 20.0016 1.20533 19.4466 1.63031 19.0192Z" fill="white"/>
<path d="M32.1411 18.292C32.609 18.8706 32.9012 19.5967 32.9012 20.3973C32.9012 22.2555 31.3893 23.7667 29.5318 23.7667C27.6743 23.7667 26.1624 22.2555 26.1624 20.3973C26.1624 19.7829 26.3398 19.2142 26.6283 18.7178L22.7877 14.8772C22.5276 15.0282 22.2483 15.146 21.9506 15.2234V25.5711C23.3994 25.9478 24.4776 27.2552 24.4776 28.8208C24.4776 30.6791 22.9657 32.1903 21.1082 32.1903C20.2465 32.1903 19.4676 31.8556 18.8711 31.3214L25.1582 37.6085L38.3039 24.4547L32.1411 18.292ZM23.9886 13.6958L27.8097 17.5169C28.3155 17.2132 28.9002 17.0278 29.5318 17.0278C30.3322 17.0278 31.0586 17.3201 31.6374 17.7882L23.7568 9.90755L23.7527 9.91094C24.1999 10.4828 24.4776 11.193 24.4776 11.9737C24.4776 12.6053 24.2921 13.1901 23.9886 13.6958Z" fill="url(#paint0_linear_254_278)"/>
<path d="M40.5862 18.598C40.5845 18.598 40.5845 18.5972 40.5845 18.5972L22.8966 0.89774C21.9424 -0.0587576 20.2725 -0.057935 19.3215 0.896918L1.63031 18.598C1.15484 19.0762 0.891602 19.7109 0.891602 20.385C0.891602 21.06 1.15484 21.6953 1.63196 22.1728L19.3199 39.8722C19.797 40.3505 20.432 40.6139 21.1082 40.6139C21.7844 40.6139 22.4195 40.3505 22.895 39.873L40.5845 22.1728C41.0616 21.6953 41.3249 21.06 41.3249 20.385C41.3249 19.7109 41.0616 19.0762 40.5862 18.598Z" fill="url(#paint1_linear_254_278)"/>
<defs>
<linearGradient id="paint0_linear_254_278" x1="17.1816" y1="16.4821" x2="31.733" y2="31.0336" gradientUnits="userSpaceOnUse">
<stop stop-color="#010101" stop-opacity="0.1"/>
<stop offset="1" stop-color="#010101" stop-opacity="0"/>
</linearGradient>
<linearGradient id="paint1_linear_254_278" x1="4.28432" y1="12.5463" x2="37.9274" y2="28.2343" gradientUnits="userSpaceOnUse">
<stop stop-color="white" stop-opacity="0.2"/>
<stop offset="1" stop-color="white" stop-opacity="0"/>
</linearGradient>
</defs>
</svg>
