<svg viewBox="0 0 41 41" fill="black" xmlns="http://www.w3.org/2000/svg">
<path fill-rule="evenodd" clip-rule="evenodd" d="M20.4987 0C9.17861 0 0 9.41037 0 21.0189C0 30.3045 5.87215 38.1828 14.0204 40.9631C15.0456 41.1549 15.3686 40.5321 15.3686 39.975C15.3686 39.4757 15.3788 38.0803 15.3686 36.3262C9.66688 37.5968 8.48528 33.5578 8.48528 33.5578C7.55358 31.1296 6.21049 30.4832 6.21049 30.4832C4.34965 29.1798 6.35018 29.2047 6.35018 29.2047C8.4071 29.3532 9.49131 31.3714 9.49131 31.3714C11.3201 34.5813 14.2882 33.6537 15.4557 33.1176C15.6428 31.759 16.1734 30.8327 16.7591 30.3071C12.207 29.7763 7.42157 27.9736 7.42157 19.9192C7.42157 17.6237 8.21999 15.7488 9.53104 14.2798C9.31958 13.749 8.61472 11.6112 9.73225 8.71661C9.73225 8.71661 11.4534 8.15162 15.3686 10.8728C17.0039 10.4063 18.7583 10.1738 20.5013 10.1659C22.2429 10.1738 23.9961 10.4063 25.634 10.8728C29.5492 8.15293 31.2678 8.71661 31.2678 8.71661C32.3853 11.6112 31.6817 13.749 31.4715 14.2798C32.7826 15.7488 33.5784 17.6237 33.5784 19.9192C33.5784 27.9946 28.7854 29.771 24.2178 30.29C24.9535 30.9404 25.6212 32.2018 25.6212 34.1622C25.6212 36.79 25.6212 39.2891 25.6212 39.9803C25.6212 40.5426 25.9518 41.1641 26.9924 40.9604C35.133 38.1762 41 30.3018 41 21.0189C41 9.41037 31.8214 0 20.4987 0Z"/>
</svg>
