<svg viewBox="0 0 40 40" fill="none" xmlns="http://www.w3.org/2000/svg">
<path d="M0 4C0 1.79086 1.79086 0 4 0H36C38.2091 0 40 1.79086 40 4V36C40 38.2091 38.2091 40 36 40H4C1.79086 40 0 38.2091 0 36V4Z" fill="#F0DB4F"/>
<path d="M36.7266 30.4601C36.4338 28.635 35.2437 27.1027 31.719 25.673C30.4947 25.1103 29.1296 24.7073 28.7228 23.7795C28.5783 23.2395 28.5593 22.9353 28.6505 22.6083C28.9129 21.5475 30.1791 21.2167 31.1829 21.5209C31.8293 21.7376 32.4414 22.2358 32.8102 23.0304C34.5365 21.9126 34.5327 21.9201 35.738 21.1521C35.2969 20.4677 35.0612 20.1521 34.7722 19.8593C33.7342 18.6996 32.3197 18.1027 30.0574 18.1483C29.6658 18.1977 29.2704 18.2509 28.8787 18.3004C27.7494 18.5856 26.6734 19.1787 26.0422 19.9734C24.1486 22.1217 24.6886 25.8821 26.9928 27.4297C29.2627 29.1331 32.5973 29.5209 33.0232 31.1141C33.4376 33.0647 31.5897 33.6958 29.7532 33.4715C28.3996 33.1902 27.6468 32.5019 26.8331 31.251C25.335 32.1179 25.335 32.1179 23.7951 33.0038C24.1601 33.8023 24.5441 34.1635 25.1563 34.8556C28.0536 37.7947 35.3045 37.6502 36.605 33.2016C36.6581 33.0494 37.008 32.0304 36.7266 30.4601V30.4601ZM21.7456 18.384H18.0042C18.0042 21.616 17.989 24.8251 17.989 28.057C17.989 30.1141 18.0955 32 17.7609 32.5779C17.2133 33.7148 15.7951 33.5741 15.1487 33.3536C14.4909 33.0304 14.1563 32.5703 13.7685 31.9201C13.662 31.7338 13.5821 31.5893 13.5555 31.5779C12.5403 32.1977 11.5289 32.8213 10.5137 33.4411C11.0194 34.4791 11.7646 35.3802 12.719 35.9657C14.1448 36.8213 16.0612 37.0836 18.065 36.6235C19.3692 36.2433 20.4947 35.4563 21.084 34.2586C21.9357 32.6882 21.7532 30.7871 21.7456 28.6844C21.7646 25.2547 21.7456 21.8251 21.7456 18.384Z" fill="#323330"/>
</svg>
