<svg viewBox="0 0 19 42" fill="none" xmlns="http://www.w3.org/2000/svg">
<path d="M18.0458 16.8494C15.9295 7.5176 11.5186 5.03335 10.3934 3.27724C9.92945 2.50363 9.51843 1.6995 9.16319 0.870361C9.10375 1.69937 8.99455 2.22164 8.28958 2.8503C6.87411 4.11177 0.862512 9.00842 0.356593 19.6114C-0.114769 29.4973 7.62746 35.5932 8.65035 36.2233C9.43688 36.6101 10.3948 36.2315 10.862 35.8765C14.5942 33.3162 19.6935 26.4907 18.05 16.8494" fill="#10AA50"/>
<path d="M9.34023 30.9221C9.15012 33.4462 9.01394 34.9128 8.53125 36.3552C8.53125 36.3552 8.8481 38.7581 9.07057 41.3036H9.85797C10.0458 39.5111 10.3326 37.7318 10.7168 35.9746C9.69752 35.4444 9.37933 33.137 9.34023 30.9221Z" fill="#B8C4C2"/>
<path d="M10.746 35.8397C9.66886 35.3493 9.35728 33.0528 9.30934 30.9133C9.57572 27.3841 9.65337 23.8435 9.54197 20.3062C9.48558 18.4502 9.56876 3.11542 9.07812 0.870361C9.41375 1.63074 9.80044 2.36823 10.2356 3.07791C11.3833 4.84506 15.8835 7.34297 18.0406 16.7261C19.7212 26.4038 14.5484 33.2487 10.746 35.8397Z" fill="#12924F"/>
</svg>
