<svg viewBox="0 0 40 42" fill="#000" xmlns="http://www.w3.org/2000/svg">
<path d="M12 12.3L13.0809 11.4998C12.7423 11.0193 12.1401 10.8172 11.5898 10.9996C11.0395 11.182 10.6667 11.7072 10.6667 12.3H12ZM20 38.2667C10.4271 38.2667 2.66667 30.3124 2.66667 20.5H0C0 31.8217 8.95429 41 20 41V38.2667ZM37.3333 20.5C37.3333 30.3124 29.5731 38.2667 20 38.2667V41C31.0456 41 40 31.8217 40 20.5H37.3333ZM20 2.73333C29.5731 2.73333 37.3333 10.6877 37.3333 20.5H40C40 9.17815 31.0456 0 20 0V2.73333ZM20 0C8.95429 0 0 9.17815 0 20.5H2.66667C2.66667 10.6877 10.4271 2.73333 20 2.73333V0ZM13.3333 32.8V12.3H10.6667V32.8H13.3333ZM10.9191 13.1002L28.2525 37.7L30.4141 36.1L13.0809 11.4998L10.9191 13.1002ZM26.6667 10.9333V27.3333H29.3333V10.9333H26.6667Z" />
</svg>
