<svg viewBox="0 0 36 41" fill="none" xmlns="http://www.w3.org/2000/svg">
<path d="M17.9159 40.5924C17.3783 40.5924 16.8327 40.448 16.3594 40.1752L11.409 37.2468C10.6709 36.8295 11.0319 36.6852 11.2727 36.6048C12.2594 36.2598 12.46 36.1878 13.511 35.5859C13.6234 35.5218 13.7679 35.5457 13.8801 35.6181L17.6831 37.8725C17.8196 37.9527 18.012 37.9527 18.1404 37.8725L32.9594 29.3196C33.0959 29.2394 33.184 29.0789 33.184 28.9185V11.8129C33.184 11.6444 33.0959 11.492 32.9515 11.4038L18.1405 2.8589C18.0041 2.77865 17.8196 2.77865 17.6832 2.8589L2.88027 11.4117C2.73576 11.492 2.6476 11.6524 2.6476 11.8209V28.9185C2.6476 29.0789 2.73576 29.2394 2.88027 29.3117L6.94014 31.6545C9.14658 32.7535 10.4944 31.4619 10.4944 30.1542V13.2731C10.4944 13.0324 10.6869 12.8479 10.9278 12.8479H12.8052C13.0379 12.8479 13.2384 13.0324 13.2384 13.2731V30.1622C13.2384 33.0986 11.6337 34.7836 8.84974 34.7836C7.99115 34.7836 7.31723 34.7836 5.4398 33.8529L1.55651 31.6144C0.593669 31.0607 0 30.0257 0 28.9106V11.8129C0 10.7057 0.593669 9.66271 1.55651 9.10912L16.3594 0.556215C17.2981 0.0267125 18.5417 0.0267125 19.4724 0.556215L34.2916 9.11703C35.2544 9.67062 35.8481 10.7056 35.8481 11.8209V28.9185C35.8481 30.0257 35.2544 31.0607 34.2916 31.6224L19.4724 40.1752C18.999 40.448 18.4613 40.5924 17.9159 40.5924ZM29.8788 23.7356C29.8788 20.5342 27.7124 19.6838 23.1633 19.0821C18.5577 18.4723 18.0925 18.1594 18.0925 17.0843C18.0925 16.1938 18.4857 15.0063 21.8955 15.0063C24.9365 15.0063 26.0597 15.6642 26.525 17.7182C26.5651 17.9107 26.7418 18.0551 26.9421 18.0551H28.868C28.9882 18.0551 29.1005 18.007 29.1808 17.9187C29.2612 17.8305 29.3012 17.7101 29.2929 17.5897C28.9963 14.0516 26.6453 12.4067 21.8955 12.4067C17.6673 12.4067 15.148 14.1879 15.148 17.1806C15.148 20.422 17.6592 21.3207 21.7109 21.7216C26.5651 22.1951 26.9421 22.9092 26.9421 23.864C26.9421 25.5169 25.6105 26.2228 22.4894 26.2228C18.566 26.2228 17.7074 25.2359 17.4186 23.2864C17.3865 23.0778 17.2099 22.9254 16.9934 22.9254H15.0757C14.835 22.9254 14.6506 23.118 14.6506 23.3505C14.6506 25.8459 16.0066 28.8225 22.4974 28.8225C27.1829 28.8144 29.8788 26.9608 29.8788 23.7356Z" fill="#539E43"/>
</svg>
