<svg viewBox="0 0 45 40" fill="none" xmlns="http://www.w3.org/2000/svg">
<path d="M22.5 15.9923C21.9733 15.9923 21.4518 16.0959 20.9652 16.2973C20.4786 16.4986 20.0365 16.7938 19.6641 17.1658C19.2916 17.5379 18.9962 17.9796 18.7947 18.4657C18.5931 18.9519 18.4894 19.4729 18.4894 19.9991C18.4894 20.5253 18.5931 21.0463 18.7947 21.5324C18.9962 22.0186 19.2916 22.4603 19.6641 22.8324C20.0365 23.2044 20.4786 23.4996 20.9652 23.7009C21.4518 23.9023 21.9733 24.0059 22.5 24.0059C23.0267 24.0059 23.5482 23.9023 24.0348 23.7009C24.5214 23.4996 24.9635 23.2044 25.3359 22.8324C25.7084 22.4603 26.0038 22.0186 26.2053 21.5324C26.4069 21.0463 26.5106 20.5253 26.5106 19.9991C26.5106 19.4729 26.4069 18.9519 26.2053 18.4657C26.0038 17.9796 25.7084 17.5379 25.3359 17.1658C24.9635 16.7938 24.5214 16.4986 24.0348 16.2973C23.5482 16.0959 23.0267 15.9923 22.5 15.9923ZM11.265 27.9697L10.38 27.7449C3.78375 26.0796 0 23.2529 0 19.9916C0 16.7303 3.78375 13.9036 10.38 12.2383L11.265 12.0154L11.5144 12.8921C12.1826 15.1919 13.0373 17.4334 14.07 19.5945L14.2594 19.9935L14.07 20.3925C13.0356 22.5528 12.1808 24.7945 11.5144 27.0949L11.265 27.9697ZM9.96937 14.2858C4.95562 15.6925 1.87875 17.8449 1.87875 19.9916C1.87875 22.1364 4.95562 24.2888 9.96937 25.6974C10.5825 23.7492 11.3229 21.8431 12.1856 19.9916C11.3219 18.1405 10.5815 16.2344 9.96937 14.2858V14.2858ZM33.735 27.9697L33.4856 27.0911C32.8181 24.7915 31.9627 22.5504 30.9281 20.3906L30.7387 19.9916L30.9281 19.5926C31.9623 17.432 32.8177 15.1903 33.4856 12.8902L33.735 12.0135L34.6219 12.2364C41.2163 13.9017 45 16.7284 45 19.9916C45 23.2548 41.2163 26.0796 34.6219 27.7449L33.735 27.9697V27.9697ZM32.8144 19.9916C33.7144 21.9379 34.4588 23.8504 35.0306 25.6974C40.0463 24.2888 43.1212 22.1364 43.1212 19.9916C43.1212 17.8449 40.0444 15.6944 35.0306 14.2858C34.4183 16.2343 33.6779 18.1404 32.8144 19.9916V19.9916ZM9.95625 14.2764L9.70688 13.4016C7.8525 6.87153 8.415 2.19221 11.25 0.558756C14.0306 -1.04473 18.495 0.849106 23.1731 5.64644L23.8106 6.30019L23.1731 6.95395C21.5109 8.68033 19.9921 10.5391 18.6319 12.5118L18.3788 12.8733L17.9381 12.9108C15.5455 13.0992 13.172 13.4814 10.8413 14.0535L9.95625 14.2764V14.2764ZM13.5112 1.8569C13.0087 1.8569 12.5644 1.96555 12.1894 2.18097C10.3256 3.25433 9.99562 6.98579 11.28 12.021C13.2781 11.5769 15.303 11.2634 17.3419 11.0825C18.5183 9.4114 19.8036 7.81946 21.1894 6.31705C18.2644 3.47162 15.495 1.8569 13.5112 1.8569V1.8569ZM31.4906 39.9995C31.4888 39.9995 31.4888 39.9995 31.4906 39.9995C28.8188 39.9995 25.3875 37.9896 21.8269 34.3368L21.1894 33.683L21.8269 33.0293C23.4887 31.3023 25.0069 29.4429 26.3663 27.4695L26.6194 27.108L27.0581 27.0705C29.452 26.8831 31.8267 26.5016 34.1588 25.9297L35.0438 25.7068L35.295 26.5835C37.1456 33.1098 36.585 37.791 33.75 39.4226C33.0614 39.8116 32.2816 40.0107 31.4906 39.9995V39.9995ZM23.8106 33.6662C26.7356 36.5116 29.505 38.1263 31.4888 38.1263H31.4906C31.9913 38.1263 32.4375 38.0177 32.8106 37.8022C34.6744 36.7289 35.0062 32.9955 33.72 27.9603C31.7214 28.405 29.6958 28.7185 27.6562 28.8988C26.4813 30.5711 25.1966 32.1637 23.8106 33.6662V33.6662ZM35.0438 14.2764L34.1588 14.0535C31.827 13.4797 29.4522 13.0976 27.0581 12.9108L26.6194 12.8733L26.3663 12.5118C25.0076 10.5385 23.4894 8.67963 21.8269 6.95395L21.1894 6.30019L21.8269 5.64644C26.5031 0.850979 30.9656 -1.04285 33.75 0.558756C36.585 2.19221 37.1475 6.87153 35.295 13.3997L35.0438 14.2764ZM27.6562 11.0825C29.7975 11.2774 31.8319 11.5939 33.72 12.021C35.0062 6.98579 34.6744 3.25433 32.8106 2.18097C30.9581 1.11136 27.4763 2.75043 23.8106 6.31705C25.1958 7.81953 26.4804 9.41147 27.6562 11.0825V11.0825ZM13.5112 39.9995C12.7196 40.011 11.9392 39.8119 11.25 39.4226C8.415 37.791 7.8525 33.1117 9.70688 26.5835L9.95438 25.7068L10.8394 25.9297C13.005 26.4748 15.3938 26.8588 17.9362 27.0705L18.3769 27.108L18.6281 27.4695C19.9885 29.4427 21.5073 31.302 23.1694 33.0293L23.8069 33.683L23.1694 34.3368C19.6106 37.9896 16.1794 39.9995 13.5112 39.9995V39.9995ZM11.28 27.9603C9.99375 32.9955 10.3256 36.7289 12.1894 37.8022C14.04 38.8569 17.52 37.2309 21.1894 33.6662C19.8041 32.1626 18.5189 30.5701 17.3419 28.8988C15.3029 28.7187 13.2779 28.4052 11.28 27.9603V27.9603ZM22.5 29.1367C20.9569 29.1367 19.3706 29.0693 17.7825 28.9381L17.3419 28.9007L17.0888 28.5391C16.1905 27.2496 15.346 25.9235 14.5575 24.5641C13.7714 23.2037 13.042 21.8114 12.3713 20.3906L12.1838 19.9916L12.3713 19.5926C13.0419 18.1718 13.7713 16.7794 14.5575 15.4191C15.3337 14.0778 16.1869 12.7403 17.0888 11.4441L17.3419 11.0825L17.7825 11.0451C20.9225 10.7791 24.0794 10.7791 27.2194 11.0451L27.6581 11.0825L27.9094 11.4441C29.7078 14.0236 31.2865 16.7494 32.6288 19.5926L32.8181 19.9916L32.6288 20.3906C31.2897 23.2355 29.7109 25.9615 27.9094 28.5391L27.6581 28.9007L27.2194 28.9381C25.6313 29.0693 24.0431 29.1367 22.5 29.1367V29.1367ZM18.3806 27.1061C21.1556 27.314 23.8444 27.314 26.6212 27.1061C28.1716 24.8419 29.548 22.4636 30.7387 19.9916C29.5501 17.5182 28.1729 15.1397 26.6194 12.8771C23.8771 12.6692 21.1229 12.6692 18.3806 12.8771C16.8264 15.1392 15.4492 17.5178 14.2612 19.9916C15.4533 22.4633 16.8303 24.8415 18.3806 27.1061V27.1061Z" fill="#61DBFB"/>
</svg>
