<svg viewBox="0 0 42 44" fill="none" xmlns="http://www.w3.org/2000/svg">
<path d="M29.8026 27.9151C31.3596 27.7833 32.5673 26.4388 32.4885 24.8324C32.406 23.226 31.064 21.9359 29.4281 21.9359H29.3188C27.6291 21.9904 26.3121 23.3842 26.3659 25.045C26.4196 25.8869 26.7708 26.5723 27.251 27.0715C25.3732 30.6534 22.5547 33.2862 18.2848 35.4989C15.4126 36.9717 12.379 37.5271 9.42615 37.1317C6.95704 36.7907 5.02547 35.7081 3.84288 33.9716C2.07258 31.3371 1.91132 28.4951 3.38597 25.6514C4.46285 23.5968 6.07189 22.0959 7.14697 21.3577C6.8782 20.674 6.55568 19.5158 6.39441 18.6476C-1.55403 24.2313 -0.74593 31.8661 1.66942 35.4743C3.4684 38.1071 7.14697 39.7909 11.1732 39.7909C12.2464 39.7909 13.3753 39.7135 14.4755 39.4499C21.4563 38.1335 26.7439 34.0261 29.7775 27.9696L29.8026 27.9151V27.9151ZM39.3851 21.3313C35.2263 16.5385 29.1037 13.9057 22.1229 13.9057H21.2091C20.7557 12.932 19.7093 12.3257 18.5267 12.3257H18.4461C16.7564 12.3257 15.4394 13.7493 15.495 15.4067C15.5487 16.9849 16.9177 18.3031 18.5554 18.3031H18.688C19.8975 18.2504 20.9439 17.5122 21.3721 16.4594H22.3666C26.5038 16.4594 30.4207 17.644 33.9918 19.9605C36.7279 21.725 38.6899 24.0415 39.7901 26.8079C40.7541 29.0716 40.7021 31.2843 39.7094 33.1298C38.1792 36.0244 35.6008 37.5535 32.1928 37.5535C30.0444 37.5535 27.9516 36.8944 26.8765 36.4216C26.2333 36.9454 25.1582 37.8154 24.3788 38.3426C26.7404 39.3936 29.1306 40 31.4385 40C36.6741 40 40.5641 37.1053 42.0424 34.3126C43.6514 31.1525 43.5188 25.8342 39.4102 21.2786L39.3851 21.3313V21.3313ZM11.6283 28.8607C11.6802 30.4407 13.0492 31.7571 14.6887 31.7571H14.7962C16.5145 31.7044 17.8297 30.3106 17.7491 28.6498C17.7491 27.0697 16.3533 25.7551 14.7156 25.7551H14.6063C14.4987 25.7551 14.3393 25.7551 14.2031 25.8061C11.9759 22.1187 11.0352 18.1678 11.3864 13.9057C11.5996 10.6929 12.6747 7.90017 14.6063 5.58373C16.2171 3.60824 19.2506 2.6328 21.3184 2.58184C27.1166 2.47463 29.5338 9.56105 29.7201 12.3784L32.4043 13.1675C31.7861 4.53096 26.3121 0 21.0765 0C16.1633 0 11.6283 3.50279 9.80063 8.63834C7.30465 15.4857 8.94236 22.0678 12.0028 27.3351C11.7358 27.6778 11.5745 28.2824 11.6283 28.8607V28.8607Z" fill="#7749BD"/>
</svg>
