<svg viewBox="0 0 55 41" fill="none" xmlns="http://www.w3.org/2000/svg">
<path d="M46.8533 23.2834C44.9665 23.2917 43.3326 23.7467 41.9681 24.4206C41.4711 23.418 40.9572 22.5421 40.8729 21.8852C40.7721 21.1186 40.6624 20.6639 40.7804 19.7542C40.8985 18.8443 41.4289 17.5556 41.4206 17.4631C41.4123 17.3705 41.3027 16.9071 40.2161 16.8987C39.1296 16.8904 38.1948 17.1092 38.0852 17.3956C37.9754 17.682 37.7651 18.3307 37.6388 19.0045C37.445 19.99 35.4655 23.5108 34.3452 25.347C33.9747 24.6312 33.6631 23.9993 33.5956 23.4939C33.4945 22.7273 33.385 22.2726 33.503 21.363C33.6209 20.4531 34.1514 19.1644 34.143 19.0719C34.1346 18.9793 34.0251 18.5159 32.9387 18.5075C31.852 18.4991 30.9173 18.718 30.8076 19.0045C30.6981 19.2907 30.5802 19.9646 30.3612 20.6135C30.1423 21.2617 27.5058 27.1241 26.8151 28.6488C26.4612 29.4235 26.1582 30.0469 25.9391 30.4682C25.9056 30.5354 25.8803 30.5776 25.8634 30.6114C25.8886 30.5693 25.9056 30.527 25.9056 30.5441C25.7203 30.9061 25.6107 31.1083 25.6107 31.1083V31.1166C25.4674 31.3861 25.3074 31.6303 25.2317 31.6303C25.1811 31.6303 25.0717 30.923 25.257 29.9543C25.6528 27.9159 26.5877 24.7491 26.5793 24.6394C26.5708 24.5805 26.7561 24.033 25.9643 23.7381C25.1979 23.4602 24.9199 23.9236 24.8526 23.9236C24.7853 23.9236 24.7347 24.0921 24.7347 24.0921C24.7347 24.0921 25.5855 20.5207 23.1006 20.5207C21.5508 20.5207 19.3947 22.2223 18.3335 23.7637C17.668 24.1259 16.2276 24.9092 14.7115 25.743C14.1304 26.0631 13.5323 26.3914 12.968 26.7032C12.9259 26.6609 12.8921 26.6188 12.8501 26.5767C9.83465 23.3594 4.2671 21.0852 4.50306 16.764C4.58723 15.1889 5.13477 11.0535 15.2086 6.03332C23.4631 1.92295 30.0665 3.05168 31.2038 5.56162C32.8376 9.14145 27.6744 15.804 19.1 16.764C15.8318 17.1262 14.1137 15.8628 13.6841 15.3912C13.2376 14.8943 13.1702 14.8689 13.0017 14.9616C12.7237 15.1132 12.9007 15.5512 13.0017 15.8123C13.2545 16.4776 14.3072 17.6569 16.1014 18.2465C17.6763 18.7603 21.5089 19.0468 26.1413 17.2526C31.3467 15.2479 35.3982 9.66344 34.2105 4.98888C32.9977 0.238476 25.1223 -1.31987 17.6681 1.32489C13.2293 2.89999 8.42823 5.37641 4.97476 8.60223C0.87283 12.4432 0.21592 15.787 0.485295 17.1853C1.44557 22.1462 8.28487 25.3807 11.0223 27.7728C10.8875 27.8486 10.7612 27.916 10.6434 27.9834C9.27047 28.6655 4.05668 31.3946 2.75107 34.2755C1.27724 37.5435 2.99524 39.8849 4.12397 40.2052C7.64472 41.1821 11.2498 39.4218 13.1871 36.5326C15.1242 33.6437 14.8884 29.8702 13.9957 28.1519C13.9871 28.1267 13.9703 28.11 13.962 28.0845C14.3157 27.874 14.6778 27.6634 15.0401 27.4529C15.7391 27.0401 16.4214 26.6609 17.0194 26.3327C16.6824 27.2424 16.4382 28.3369 16.3118 29.9207C16.1603 31.7736 16.9268 34.1742 17.9207 35.1176C18.3585 35.5304 18.8892 35.5389 19.2178 35.5389C20.3801 35.5389 20.9022 34.5785 21.4834 33.433C22.1994 32.0346 22.8311 30.409 22.8311 30.409C22.8311 30.409 22.0394 34.8061 24.204 34.8061C24.9957 34.8061 25.7877 33.7868 26.1412 33.2646V33.2729C26.1412 33.2729 26.1582 33.2394 26.2003 33.1721C26.2845 33.0456 26.3266 32.9698 26.3266 32.9698V32.9443C26.6466 32.3969 27.3458 31.1418 28.3984 29.0699C29.7631 26.3913 31.0685 23.0473 31.0685 23.0473C31.0685 23.0473 31.1864 23.8646 31.591 25.2206C31.8267 26.0208 32.3236 26.8968 32.7195 27.7476C32.3996 28.1855 32.2057 28.4382 32.2057 28.4382C32.2057 28.4382 32.2057 28.4465 32.2139 28.455C31.9613 28.7921 31.675 29.1543 31.3802 29.5081C30.302 30.7883 29.0217 32.254 28.8534 32.6751C28.6511 33.1721 28.7017 33.5424 29.0892 33.829C29.3755 34.0481 29.8809 34.0816 30.4115 34.0397C31.3802 33.972 32.0624 33.7364 32.3909 33.5845C32.913 33.3995 33.5196 33.1045 34.0924 32.6918C35.1452 31.9171 35.7855 30.8053 35.7263 29.3397C35.6927 28.5311 35.4314 27.7224 35.1114 26.9645C35.2041 26.8296 35.3053 26.6862 35.3979 26.5433C37.0658 24.1088 38.3544 21.439 38.3544 21.439C38.3544 21.439 38.4723 22.2558 38.8765 23.612C39.0787 24.2943 39.4746 25.044 39.8367 25.7766C38.27 27.0486 37.3015 28.5227 36.9645 29.4911C36.3411 31.2853 36.8297 32.0937 37.7478 32.2793C38.1605 32.3635 38.7502 32.1696 39.1882 31.9843C39.7356 31.799 40.3927 31.5042 41.0075 31.0493C42.0604 30.2746 43.0796 29.1879 43.0123 27.7139C42.9869 27.0484 42.8017 26.3831 42.5574 25.743C43.8797 25.1872 45.5982 24.8837 47.7881 25.1366C52.4796 25.684 53.3976 28.6151 53.2207 29.8363C53.044 31.0662 52.0586 31.7401 51.73 31.9422C51.4013 32.1444 51.3004 32.2203 51.3258 32.3718C51.3678 32.5908 51.5193 32.5825 51.7973 32.5317C52.1849 32.4644 54.2568 31.5378 54.3493 29.272C54.4843 26.4082 51.7302 23.2582 46.8533 23.2834ZM10.6939 35.4713C9.14422 37.1643 6.97105 37.8045 6.03621 37.2654C5.03384 36.6844 5.4297 34.1911 7.3417 32.3885C8.50407 31.2936 10.0033 30.2829 10.9973 29.6597C11.2247 29.525 11.5532 29.3228 11.9575 29.0785C12.0249 29.0366 12.0586 29.0196 12.0586 29.0196C12.1343 28.9689 12.2186 28.9269 12.3029 28.8763C13.0017 31.4369 12.328 33.6941 10.6939 35.4713ZM22.0143 27.7728C21.4752 29.095 20.3381 32.4643 19.6476 32.2874C19.058 32.1357 18.6957 29.5668 19.5297 27.0401C19.9508 25.7682 20.8435 24.2521 21.3743 23.6626C22.2249 22.7107 23.1598 22.4074 23.3789 22.7865C23.6736 23.2834 22.3511 26.9474 22.0143 27.7728ZM31.3636 32.2371C31.1363 32.3549 30.9256 32.4307 30.8246 32.3717C30.7489 32.3296 30.9173 32.1695 30.9173 32.1695C30.9173 32.1695 32.0879 30.9145 32.5513 30.3416C32.8207 30.0048 33.1323 29.6088 33.4693 29.171C33.4693 29.2128 33.4775 29.2553 33.4775 29.3055C33.4694 30.8135 32.0207 31.8328 31.3636 32.2371ZM38.5737 30.5945C38.4053 30.4766 38.4304 30.0807 38.9948 28.8508C39.2139 28.3707 39.7194 27.5622 40.5951 26.7873C40.6963 27.1073 40.7551 27.4104 40.7551 27.6968C40.7466 29.592 39.3907 30.2996 38.5737 30.5945Z" fill="#CF649A"/>
</svg>
