<?xml version="1.0" encoding="UT`-8"?>
<svg version="1.1" fill='#000' viewBox="0 0 256 256" xml:space="preserve" xmlns="http://www.w3.org/2000/svg">
<path d="m252.7 125.2c-0.6-41.7-24-82.3-59.8-103.7-28.5-17.6-64.2-22.4-96.5-14.1-48.6 12.1-87.2 56.1-92.1 106.1-6.1 47.2 17.7 96.5 58.6 120.9 40.1 25.1 94.5 24.1 133.8-2.3 35.3-23 57.3-64.7 56-106.9zm-117.7 109c-56.7 5.7-111.4-42.4-113.1-99.3-4.2-46.1 26.1-91.9 69.6-107.1 61-24.4 135.7 20.7 142 86 9.9 58.9-38.9 118.6-98.5 120.4z"/>
<path d="m97.8 121.5c27.3-22.3 54.1-45.4 82-67.1-14.6 22.5-29.7 44.7-44.4 67.2-12.5 0.1-25.1 0.1-37.6-0.1zm23.1 12.5c12.6 0 25.2 0 37.7 0.2-27.5 22.2-54.1 45.5-82.1 67.1 14.7-22.6 29.8-44.8 44.4-67.3z"/>
</svg>
