<svg viewBox="0 0 40 40" fill="none" xmlns="http://www.w3.org/2000/svg">
<rect width="40" height="40" rx="4" fill="#007ACC"/>
<path d="M8 19.8674V21.4974H13.2V36.2974H16.89V21.4974H22.09V19.8974C22.09 18.9974 22.09 18.2674 22.05 18.2474C22.05 18.2174 18.88 18.2074 15.03 18.2074L8.03 18.2373V19.8774L8 19.8674ZM31.37 18.1974C32.39 18.4374 33.17 18.8974 33.87 19.6274C34.24 20.0274 34.79 20.7274 34.83 20.9074C34.83 20.9674 33.1 22.1374 32.05 22.7874C32.01 22.8174 31.85 22.6474 31.69 22.3874C31.17 21.6474 30.64 21.3274 29.81 21.2674C28.61 21.1874 27.81 21.8174 27.81 22.8674C27.81 23.1874 27.87 23.3674 27.99 23.6274C28.26 24.1774 28.76 24.5074 30.31 25.1874C33.17 26.4174 34.41 27.2274 35.16 28.3874C36.01 29.6874 36.2 31.7274 35.63 33.2574C34.99 34.9274 33.43 36.0574 31.2 36.4274C30.5 36.5474 28.9 36.5274 28.15 36.3974C26.55 36.0974 25.02 35.2974 24.08 34.2674C23.71 33.8674 23 32.7974 23.04 32.7274L23.42 32.4874L24.92 31.6174L26.05 30.9574L26.31 31.3074C26.64 31.8274 27.38 32.5274 27.81 32.7674C29.11 33.4374 30.85 33.3474 31.71 32.5674C32.08 32.2274 32.24 31.8674 32.24 31.3674C32.24 30.9074 32.17 30.6974 31.94 30.3474C31.62 29.9074 30.98 29.5474 29.18 28.7474C27.11 27.8674 26.23 27.3074 25.41 26.4474C24.94 25.9274 24.51 25.1174 24.31 24.4474C24.16 23.8674 24.11 22.4474 24.25 21.8774C24.68 19.8774 26.19 18.4774 28.35 18.0774C29.05 17.9374 30.7 17.9974 31.39 18.1774L31.37 18.1974Z" fill="white"/>
</svg>
