<svg viewBox="0 0 40 40" fill="none" xmlns="http://www.w3.org/2000/svg">
<path d="M0 20V0H40V40H0" fill="#007ACC"/>
<path d="M8.77051 20.07V21.7H13.9705V36.5H17.6605V21.7H22.8605V20.1C22.8605 19.2 22.8605 18.47 22.8205 18.45C22.8205 18.42 19.6505 18.41 15.8005 18.41L8.80051 18.44V20.08L8.77051 20.07V20.07ZM32.1405 18.4C33.1605 18.64 33.9405 19.1 34.6405 19.83C35.0105 20.23 35.5605 20.93 35.6005 21.11C35.6005 21.17 33.8705 22.34 32.8205 22.99C32.7805 23.02 32.6205 22.85 32.4605 22.59C31.9405 21.85 31.4105 21.53 30.5805 21.47C29.3805 21.39 28.5805 22.02 28.5805 23.07C28.5805 23.39 28.6405 23.57 28.7605 23.83C29.0305 24.38 29.5305 24.71 31.0805 25.39C33.9405 26.62 35.1805 27.43 35.9305 28.59C36.7805 29.89 36.9705 31.93 36.4005 33.46C35.7605 35.13 34.2005 36.26 31.9705 36.63C31.2705 36.75 29.6705 36.73 28.9205 36.6C27.3205 36.3 25.7905 35.5 24.8505 34.47C24.4805 34.07 23.7705 33 23.8105 32.93L24.1905 32.69L25.6905 31.82L26.8205 31.16L27.0805 31.51C27.4105 32.03 28.1505 32.73 28.5805 32.97C29.8805 33.64 31.6205 33.55 32.4805 32.77C32.8505 32.43 33.0105 32.07 33.0105 31.57C33.0105 31.11 32.9405 30.9 32.7105 30.55C32.3905 30.11 31.7505 29.75 29.9505 28.95C27.8805 28.07 27.0005 27.51 26.1805 26.65C25.7105 26.13 25.2805 25.32 25.0805 24.65C24.9305 24.07 24.8805 22.65 25.0205 22.08C25.4505 20.08 26.9605 18.68 29.1205 18.28C29.8205 18.14 31.4705 18.2 32.1605 18.38L32.1405 18.4V18.4Z" fill="white"/>
</svg>
