<svg xmlns="http://www.w3.org/2000/svg"  viewBox="0 0 47 47"  xmlns:v="https://vecta.io/nano"><path d="M23.2 0C36 0 46.5 10.4 46.5 23.3S36 46.5 23.2 46.5 0 36.1 0 23.2 10.4 0 23.2 0zm-1.1 22.2a1.95 1.95 0 0 0 2.3 0l1.3-1 7.9-6a2.42 2.42 0 0 0-1.9-1h-17c-.8 0-1.5.4-1.9 1l7.9 6 1.4 1zM34.6 18c0-.6 0-1.1-.3-1.6l-8.4 6.4-1.4 1c-.7.6-1.8.6-2.5 0l-1.4-1-8.5-6.3c-.3.5-.5 1-.5 1.5v11.7c0 .6.2 1.2.6 1.7l.1.1c.5.4 1 .6 1.6.6h2.6 7 6.2 2.6c.6 0 1.2-.2 1.6-.6l.1-.1c.4-.5.6-1.1.6-1.7V18z" fill="#000"/></svg>