<?xml version="1.0" encoding="UTF-8"?>
<svg fill="none" stroke="#fff" stroke-linecap="round" stroke-linejoin="round" stroke-width="2" data-name="Layer 1" viewBox="0 0 21.5 23.03" xmlns="http://www.w3.org/2000/svg">
<path d="M8,19c-5,1.5-5-2.5-7-3m14,6V18.16a3.35,3.35,0,0,0-.94-2.61c3.14-.35,6.44-1.54,6.44-7A5.44,5.44,0,0,0,19,4.8,5.07,5.07,0,0,0,18.91,1S17.73.68,15,2.51a13.4,13.4,0,0,0-7,0C5.27.68,4.09,1,4.09,1A5.07,5.07,0,0,0,4,4.8,5.42,5.42,0,0,0,2.5,8.58c0,5.42,3.3,6.61,6.44,7A3.33,3.33,0,0,0,8,18.16V22" />
</svg>
