<svg xmlns="http://www.w3.org/2000/svg" viewBox="0 0 47 47" xmlns:v="https://vecta.io/nano"><path d="M23.3.5c12.8 0 23.3 10.4 23.3 23.3S36.1 47 23.3 47 0 36.6 0 23.7 10.4.5 23.3.5zm-.1 8.9c-7.9 0-14.3 6.3-14.3 14.2 0 6.3 4.1 11.6 9.8 13.5.7.1 1-.3 1-.7V34c-4 .9-4.8-1.9-4.8-1.9-.6-1.6-1.6-2.1-1.6-2.1-1.3-.9.1-.9.1-.9 1.4.1 2.2 1.5 2.2 1.5 1.3 2.2 3.3 1.5 4.2 1.2a3.09 3.09 0 0 1 .9-1.9c-3.2-.4-6.5-1.6-6.5-7 0-1.5.6-2.8 1.5-3.8-.1-.4-.6-1.8.1-3.8 0 0 1.2-.4 3.9 1.5a14.22 14.22 0 0 1 3.6-.5c1.2 0 2.4.2 3.6.5 2.7-1.8 3.9-1.5 3.9-1.5.8 2 .3 3.4.1 3.8.9 1 1.5 2.3 1.5 3.8 0 5.4-3.3 6.6-6.5 7 .5.4 1 1.3 1 2.6v3.9c0 .3.2.7.8.7h.2c5.7-1.9 9.8-7.2 9.8-13.5-.2-7.8-6.6-14.2-14.5-14.2z" fill="#000"/></svg>