<svg xmlns="http://www.w3.org/2000/svg" viewBox="0 0 47 47" xmlns:v="https://vecta.io/nano"><path d="M23.3 0c12.8 0 23.3 10.4 23.3 23.3S36.1 46.5 23.3 46.5 0 36.1 0 23.2 10.4 0 23.3 0zm5.1 9.2H17.9a8.71 8.71 0 0 0-8.7 8.7v10.5a8.71 8.71 0 0 0 8.7 8.7h10.5a8.71 8.71 0 0 0 8.7-8.7V17.9c.1-4.8-3.8-8.7-8.7-8.7zm6.1 19.2c0 3.4-2.6 6.1-6 6.1H17.9a6.06 6.06 0 0 1-6.1-6.1V17.9a6.06 6.06 0 0 1 6.1-6.1h10.5a6.06 6.06 0 0 1 6.1 6.1v10.5zM23.2 16.2c-3.9 0-7 3.1-7 7s3.1 7 7 7 7-3.1 7-7-3.1-7-7-7zm0 11.4c-2.4 0-4.4-2-4.4-4.4s2-4.4 4.4-4.4 4.4 2 4.4 4.4-2 4.4-4.4 4.4zm7.5-12.9c-.5 0-.9.4-.9.9s.4.9.9.9.9-.4.9-.9-.4-.9-.9-.9z" fill="#000"/></svg>