<?xml version="1.0" encoding="utf-8"?>
<!-- Generator: Adobe Illustrator 26.0.3, SVG Export Plug-In . SVG Version: 6.00 Build 0)  -->
<svg version="1.1" id="Layer_1" xmlns:v="https://vecta.io/nano"
	 xmlns="http://www.w3.org/2000/svg" xmlns:xlink="http://www.w3.org/1999/xlink" x="0px" y="0px" viewBox="0 0 22 22"
	 style="enable-background:new 0 0 22 22;" xml:space="preserve">
<path d="M19.9,13.2c-0.1-0.1-0.3-0.1-0.4,0c-1.5,0.9-3.2,1.3-4.9,1.1c-1.7-0.2-3.3-1-4.6-2.2c-1.2-1.2-2-2.8-2.2-4.6
	C7.6,5.8,8,4.1,8.9,2.6C9,2.5,9,2.3,8.9,2.1C8.8,2,8.6,2,8.5,2c-1.5,0.5-2.9,1.3-4,2.5S2.6,7.1,2.3,8.6s-0.4,3.1,0.1,4.7
	s1.2,2.9,2.4,4s2.5,1.9,4,2.4s3.1,0.5,4.7,0.1c1.5-0.4,3-1.1,4.1-2.2c1.2-1.1,2-2.4,2.5-4C20,13.4,20,13.3,19.9,13.2L19.9,13.2z"/>
</svg>
