<svg xmlns="http://www.w3.org/2000/svg" viewBox="0 0 47 47" xmlns:v="https://vecta.io/nano"><path d="M23.7.5C36.5.5 47 10.9 47 23.8S36.5 47 23.7 47 .4 36.6.4 23.7 10.8.5 23.7.5zm13.4 15a15.83 15.83 0 0 1-3.1.9c1.1-.7 2-1.7 2.4-3-1.1.6-2.2 1.1-3.5 1.3-1-1.1-2.4-1.7-4-1.7-3 0-5.5 2.5-5.5 5.5 0 .4 0 .8.1 1.2-4.5-.2-8.6-2.4-11.3-5.7-.5.8-.7 1.8-.7 2.8 0 1.9 1 3.6 2.4 4.5-.9 0-1.7-.3-2.5-.7v.1c0 2.7 1.9 4.9 4.4 5.4-.4.1-.9.2-1.4.2-.3 0-.7 0-1-.1.7 2.2 2.7 3.8 5.1 3.8-1.9 1.5-4.2 2.3-6.8 2.3-.4 0-.9 0-1.3-.1 2.4 1.6 5.3 2.4 8.4 2.4 10 0 15.5-8.3 15.5-15.5v-.7c1.1-.9 2.1-1.8 2.8-2.9z" fill="#000"/></svg>