<svg width="47" height="47" viewBox="0 0 47 47" fill="none" xmlns="http://www.w3.org/2000/svg">
<path d="M23.2 0C36 0 46.5 10.4 46.5 23.3C46.5 36.2 36 46.5 23.2 46.5C10.4 46.5 0 36.1 0 23.2C0 10.3 10.4 0 23.2 0ZM22.1 22.2C22.8 22.7 23.7 22.7 24.4 22.2L25.7 21.2L33.6 15.2C33.2 14.6 32.4 14.2 31.7 14.2H14.7C13.9 14.2 13.2 14.6 12.8 15.2L20.7 21.2L22.1 22.2ZM34.6 18C34.6 17.4 34.6 16.9 34.3 16.4L25.9 22.8L24.5 23.8C23.8 24.4 22.7 24.4 22 23.8L20.6 22.8L12.1 16.5C11.8 17 11.6 17.5 11.6 18V29.7C11.6 30.3 11.8 30.9 12.2 31.4L12.3 31.5C12.8 31.9 13.3 32.1 13.9 32.1H16.5H23.5H29.7H32.3C32.9 32.1 33.5 31.9 33.9 31.5L34 31.4C34.4 30.9 34.6 30.3 34.6 29.7V18Z" fill="#231F20"/>
</svg>
