<svg width="80" height="83" viewBox="0 0 80 83" fill="none" xmlns="http://www.w3.org/2000/svg">
<path d="M29.2858 83C29.2858 81.7217 29.2387 78.342 29.2117 73.858C14.2295 77.1039 11.0647 66.6502 11.0647 66.6502C8.6204 60.4395 5.08527 58.7864 5.08527 58.7864C0.189951 55.4536 5.44888 55.5205 5.44888 55.5205C10.856 55.902 13.6975 61.0619 13.6975 61.0619C18.5053 69.2736 26.3095 66.9045 29.3801 65.5258C29.8649 62.0524 31.2587 59.6832 32.8007 58.338C20.8419 56.9795 8.26352 52.3683 8.26352 31.7754C8.26352 25.906 10.3644 21.1075 13.812 17.3463C13.2531 15.9877 11.4081 10.5199 14.3372 3.12468C14.3372 3.12468 18.8622 1.67909 29.1511 8.63263C33.4471 7.44136 38.0529 6.84572 42.6385 6.82565C47.2106 6.85242 51.8231 7.44136 56.1259 8.63932C66.4081 1.68578 70.9263 3.13137 70.9263 3.13137C73.8621 10.5333 72.0171 15.9944 71.465 17.353C74.9193 21.1142 77 25.9127 77 31.7821C77 52.4285 64.4082 56.9728 52.4089 58.3046C54.3415 59.9643 56.0653 63.2437 56.0653 68.2564C56.0653 75.4441 55.9979 81.2399 55.9979 83" stroke="black" stroke-width="6"/>
</svg>
