<svg width="47" height="47" viewBox="0 0 47 47" fill="none" xmlns="http://www.w3.org/2000/svg">
<circle cx="23.2541" cy="23.7453" r="23.2541" fill="#465267"/>
<path d="M23.1927 9.41223C15.3119 9.41223 8.9209 15.7599 8.9209 23.5902C8.9209 29.8531 13.0103 35.1664 18.684 37.0428C19.3977 37.1734 19.6582 36.7356 19.6582 36.3596C19.6582 36.0225 19.6457 35.1311 19.6386 33.9484C15.6687 34.8045 14.8302 32.0473 14.8302 32.0473C14.1825 30.4092 13.2458 29.9732 13.2458 29.9732C11.9487 29.0941 13.3421 29.1118 13.3421 29.1118C14.7749 29.2124 15.5278 30.5733 15.5278 30.5733C16.8017 32.7392 18.8696 32.1144 19.6832 31.7507C19.8117 30.8346 20.181 30.2097 20.5896 29.8549C17.4208 29.4966 14.0879 28.2804 14.0879 22.8489C14.0879 21.3008 14.6446 20.0352 15.5581 19.0431C15.41 18.6848 14.9212 17.2426 15.6973 15.2921C15.6973 15.2921 16.8963 14.9108 19.6225 16.7448C20.7609 16.4306 21.9813 16.2735 23.1963 16.2682C24.4078 16.2753 25.6299 16.4306 26.77 16.7466C29.4945 14.9126 30.6917 15.2938 30.6917 15.2938C31.4696 17.2461 30.9808 18.6865 30.8345 19.0449C31.7498 20.0369 32.3011 21.3026 32.3011 22.8506C32.3011 28.2962 28.9646 29.4948 25.7852 29.8461C26.2972 30.2838 26.754 31.1488 26.754 32.4709C26.754 34.3667 26.7361 35.8954 26.7361 36.3596C26.7361 36.6997 26.9424 37.0894 27.5065 37.0664C27.572 37.0637 27.6422 37.0555 27.7175 37.041C33.3823 35.1628 37.4681 29.8514 37.4681 23.5902C37.4681 15.7599 31.0771 9.41223 23.1927 9.41223Z" fill="#0E121A"/>
</svg>
