<svg width="29" height="30" viewBox="0 0 29 30" fill="none" xmlns="http://www.w3.org/2000/svg">
<path d="M20.2685 28.4557C24.4816 28.4557 27.9074 25.03 27.9074 20.8168V9.4358C27.9074 5.22262 24.4816 1.79688 20.2685 1.79688H8.88746C4.67428 1.79688 1.24854 5.22262 1.24854 9.4358V20.8168C1.24854 25.03 4.67428 28.4557 8.88746 28.4557H20.2685Z" stroke="#CCD6F6" stroke-width="2"/>
<path d="M8.41309 14.7035C8.41309 17.8696 10.9891 20.4456 14.1552 20.4456C17.3213 20.4456 19.8973 17.8696 19.8973 14.7035C19.8973 11.5352 17.321 8.96143 14.1552 8.96143C10.9893 8.96143 8.41309 11.5352 8.41309 14.7035Z" stroke="#CCD6F6" stroke-width="2"/>
<path d="M21.0027 9.55425C22.1134 9.55425 23.0137 8.65389 23.0137 7.54324C23.0137 6.43259 22.1134 5.53223 21.0027 5.53223C19.8921 5.53223 18.9917 6.43259 18.9917 7.54324C18.9917 8.65389 19.8921 9.55425 21.0027 9.55425Z" stroke="#CCD6F6" stroke-width="2"/>
</svg>
