<svg width="47" height="47" viewBox="0 0 47 47" fill="none" xmlns="http://www.w3.org/2000/svg">
<path d="M23.3 0C36.1 0 46.6 10.4 46.6 23.3C46.6 36.2 36.1 46.5 23.3 46.5C10.5 46.5 0 36.1 0 23.2C0 10.3 10.4 0 23.3 0ZM28.4 9.2H17.9C13.1 9.2 9.2 13.1 9.2 17.9V28.4C9.2 33.2 13.1 37.1 17.9 37.1H28.4C33.2 37.1 37.1 33.2 37.1 28.4V17.9C37.2 13.1 33.3 9.2 28.4 9.2ZM34.5 28.4C34.5 31.8 31.9 34.5 28.5 34.5H17.9C14.5 34.5 11.8 31.8 11.8 28.4V17.9C11.8 14.5 14.5 11.8 17.9 11.8H28.4C31.8 11.8 34.5 14.5 34.5 17.9V28.4ZM23.2 16.2C19.3 16.2 16.2 19.3 16.2 23.2C16.2 27.1 19.3 30.2 23.2 30.2C27.1 30.2 30.2 27.1 30.2 23.2C30.2 19.3 27.1 16.2 23.2 16.2ZM23.2 27.6C20.8 27.6 18.8 25.6 18.8 23.2C18.8 20.8 20.8 18.8 23.2 18.8C25.6 18.8 27.6 20.8 27.6 23.2C27.6 25.6 25.6 27.6 23.2 27.6ZM30.7 14.7C30.2 14.7 29.8 15.1 29.8 15.6C29.8 16.1 30.2 16.5 30.7 16.5C31.2 16.5 31.6 16.1 31.6 15.6C31.6 15.1 31.2 14.7 30.7 14.7Z" fill="#231F20"/>
</svg>
