<?xml version="1.0" encoding="utf-8"?>
<!-- Generator: Adobe Illustrator 26.0.3, SVG Export Plug-In . SVG Version: 6.00 Build 0)  -->
<svg version="1.1" id="Layer_1" xmlns="http://www.w3.org/2000/svg" xmlns:xlink="http://www.w3.org/1999/xlink" x="0px" y="0px"
	 viewBox="0 0 47 47" style="enable-background:new 0 0 47 47;" xml:space="preserve">
<style type="text/css">
	.st0{fill:#231F20;}
</style>
<path class="st0" d="M23.6,0.5c12.8,0,23.3,10.4,23.3,23.3S36.4,47,23.6,47S0.3,36.6,0.3,23.7S10.8,0.5,23.6,0.5z M16.7,18.3h-5.5
	v16.9h5.5V18.3z M31.7,18.5c-0.1,0-0.1,0-0.2-0.1c-0.1,0-0.1,0-0.2,0c-0.3-0.1-0.6-0.1-1-0.1c-3.2,0-5.2,2.3-5.9,3.2v-3.2h-5.5v16.9
	h5.5v-9.2c0,0,4.2-5.8,5.9-1.5c0,3.8,0,10.8,0,10.8h5.5V23.8C35.8,21.2,34.1,19.1,31.7,18.5z M13.9,16c1.5,0,2.7-1.2,2.7-2.7
	c0-1.5-1.2-2.7-2.7-2.7c-1.5,0-2.7,1.2-2.7,2.7C11.2,14.7,12.4,16,13.9,16z"/>
</svg>
