<svg width="47" height="47" viewBox="0 0 47 47" fill="none" xmlns="http://www.w3.org/2000/svg">
<circle cx="23.6037" cy="23.7453" r="23.2541" fill="#1976D2"/>
<circle cx="23.6037" cy="23.7453" r="23.2541" fill="#465267"/>
<path d="M16.7047 18.257H11.2021V35.1736H16.7047V18.257Z" fill="#0E121A"/>
<path d="M31.6929 18.4553C31.6345 18.4369 31.5791 18.4169 31.5176 18.4C31.4438 18.3831 31.37 18.3692 31.2946 18.3569C31.0024 18.2985 30.6825 18.257 30.3073 18.257C27.0993 18.257 25.0647 20.5899 24.3941 21.4911V18.257H18.8916V35.1736H24.3941V25.9464C24.3941 25.9464 28.5526 20.1547 30.3073 24.4085C30.3073 28.2055 30.3073 35.1736 30.3073 35.1736H35.8083V23.758C35.8083 21.202 34.0566 19.072 31.6929 18.4553Z" fill="#0E121A"/>
<path d="M13.8934 15.9504C15.3798 15.9504 16.5847 14.7455 16.5847 13.2592C16.5847 11.7728 15.3798 10.5679 13.8934 10.5679C12.4071 10.5679 11.2021 11.7728 11.2021 13.2592C11.2021 14.7455 12.4071 15.9504 13.8934 15.9504Z" fill="#0E121A"/>
</svg>
