<svg width="443" height="856" viewBox="0 0 443 856" fill="none" xmlns="http://www.w3.org/2000/svg">
<path d="M0 855.654C43.649 809.725 83.5226 766.286 123.974 724.644C131.09 717.318 125.768 719.396 141.349 719.133C172.786 718.602 204.261 719.133 235.697 718.806C270.177 718.52 305.86 711.451 318.958 677.933C332.057 644.415 313.826 605.025 290.364 579.59C272.912 560.647 255.499 541.663 236.93 521.413L0.539352 775.413C0.539352 766.551 0.539352 754.447 0.539352 748.16C0.385252 608.658 -1.32024e-07 469.156 1.00165 329.655V311.444L13.2912 298.056C49.8516 257.23 87.7989 217.629 128.52 174.15V441.433C128.52 441.433 129.081 440.804 142.428 426.698C191.509 374.822 240.526 322.864 289.478 270.825C314.211 244.492 332.057 206.157 318.958 174.15C305.282 140.836 264.607 128.827 230.358 128.5C210.39 128.31 186.058 128.5 168.338 128.5C182.362 114.211 201.102 97.8871 214.971 83.394C236.891 60.4499 259.198 37.8325 280.078 13.9902L292.38 0L310.398 7.45811C443.579 59.7967 487.113 244.86 391.532 356.477C371.807 379.503 348.653 399.222 324.305 423.227C346.457 445.682 365.643 463.645 383.172 483.2C488.268 600.534 448.934 788.536 307.547 842.671C287.038 850.439 265.484 854.657 243.71 855.164C167.353 856.634 90.9195 855.736 14.5625 855.654C11.5576 855.654 8.44469 855.654 0 855.654Z" fill="black"/>
</svg>
