<?xml version="1.0" encoding="utf-8"?>
<!-- Generator: Adobe Illustrator 26.0.3, SVG Export Plug-In . SVG Version: 6.00 Build 0)  -->
<svg version="1.1" id="Layer_1" xmlns="http://www.w3.org/2000/svg" xmlns:xlink="http://www.w3.org/1999/xlink" x="0px" y="0px"
	 viewBox="0 0 443 856" style="enable-background:new 0 0 443 856;" xml:space="preserve">
<style type="text/css">
	.st0{fill:#231F20;}
</style>
<path class="st0" d="M0,855.7c43.6-45.9,83.5-89.4,124-131c7.1-7.3,1.8-5.2,17.4-5.5c31.4-0.5,62.9,0,94.3-0.3
	c34.5-0.3,70.2-7.4,83.3-40.9c13.1-33.5-5.1-72.9-28.6-98.3c-17.5-18.9-34.9-37.9-53.4-58.2L0.5,775.4c0-8.9,0-21,0-27.3
	C0.4,608.7,0,469.2,1,329.7v-18.2l12.3-13.4c36.6-40.8,74.5-80.4,115.2-123.9v267.3c0,0,0.6-0.6,13.9-14.7
	c49.1-51.9,98.1-103.8,147.1-155.9c24.7-26.3,42.6-64.7,29.5-96.7c-13.7-33.3-54.4-45.3-88.6-45.6c-20-0.2-44.3,0-62,0
	c14-14.3,32.8-30.6,46.6-45.1c21.9-22.9,44.2-45.6,65.1-69.4l12.3-14l18,7.5c133.2,52.3,176.7,237.4,81.1,349
	c-19.7,23-42.9,42.7-67.2,66.8c22.2,22.5,41.3,40.4,58.9,60c105.1,117.3,65.8,305.3-75.6,359.5c-20.5,7.8-42.1,12-63.8,12.5
	c-76.4,1.5-152.8,0.6-229.1,0.5C11.6,855.7,8.4,855.7,0,855.7z"/>
</svg>
