<svg width="25" height="25" viewBox="0 0 25 25" fill="none" xmlns="http://www.w3.org/2000/svg">
<path d="M24.8177 15.5689C24.734 15.5109 24.6345 15.4798 24.5327 15.4798C24.4308 15.4798 24.3314 15.5109 24.2477 15.5689C22.1954 16.8264 19.7795 17.356 17.3894 17.0723C14.9993 16.7885 12.7745 15.708 11.0738 14.0049C9.37303 12.3019 8.29552 10.0756 8.01501 7.68514C7.73451 5.29469 8.26737 2.87944 9.52765 0.828931C9.60198 0.743842 9.6453 0.636088 9.65055 0.52323C9.6558 0.410372 9.62267 0.299063 9.55656 0.207442C9.49045 0.115821 9.39527 0.0492895 9.28651 0.0186891C9.17775 -0.0119113 9.06184 -0.00477631 8.95765 0.0389313C6.861 0.694774 4.96899 1.88042 3.46452 3.48125C1.96005 5.08208 0.893997 7.04397 0.369416 9.17725C-0.155164 11.3105 -0.120533 13.5431 0.469963 15.6591C1.06046 17.7751 2.18685 19.7029 3.74025 21.2563C5.29365 22.8097 7.22152 23.9361 9.33751 24.5266C11.4535 25.1171 13.686 25.1517 15.8193 24.6272C17.9526 24.1026 19.9145 23.0365 21.5153 21.5321C23.1162 20.0276 24.3018 18.1356 24.9577 16.0389C24.9767 15.9552 24.9738 15.8679 24.9492 15.7856C24.9247 15.7033 24.8794 15.6286 24.8177 15.5689Z" fill="black"/>
</svg>
