<?xml version="1.0" encoding="utf-8"?>
<!-- Generator: Adobe Illustrator 26.0.3, SVG Export Plug-In . SVG Version: 6.00 Build 0)  -->
<svg version="1.1" id="Layer_1" xmlns="http://www.w3.org/2000/svg" xmlns:xlink="http://www.w3.org/1999/xlink" x="0px" y="0px"
	 viewBox="0 0 25 25" style="enable-background:new 0 0 25 25;" xml:space="preserve">
<style type="text/css">
	.st0{fill:#231F20;}
</style>
<path class="st0" d="M24.8,15.6c-0.1-0.1-0.2-0.1-0.3-0.1c-0.1,0-0.2,0-0.3,0.1c-2.1,1.3-4.5,1.8-6.9,1.5c-2.4-0.3-4.6-1.4-6.3-3.1
	C9.4,12.3,8.3,10.1,8,7.7C7.7,5.3,8.3,2.9,9.5,0.8c0.1-0.1,0.1-0.2,0.1-0.3s0-0.2-0.1-0.3C9.5,0.1,9.4,0,9.3,0C9.2,0,9.1,0,9,0
	C6.9,0.7,5,1.9,3.5,3.5S0.9,7,0.4,9.2c-0.5,2.1-0.5,4.4,0.1,6.5c0.6,2.1,1.7,4,3.3,5.6s3.5,2.7,5.6,3.3s4.3,0.6,6.5,0.1
	c2.1-0.5,4.1-1.6,5.7-3.1c1.6-1.5,2.8-3.4,3.4-5.5c0-0.1,0-0.2,0-0.3C24.9,15.7,24.9,15.6,24.8,15.6z"/>
</svg>
