<svg width="22" height="22" viewBox="0 0 22 22" fill="none" xmlns="http://www.w3.org/2000/svg">
<path d="M19.8901 13.2112C19.8298 13.1693 19.7581 13.1469 19.6847 13.1469C19.6113 13.1469 19.5396 13.1693 19.4793 13.2112C17.9999 14.1167 16.2583 14.498 14.5354 14.2937C12.8125 14.0894 11.2087 13.3113 9.98269 12.0849C8.75668 10.8586 7.97994 9.25541 7.77773 7.53406C7.57553 5.8127 7.95965 4.07348 8.86814 2.59691C8.92172 2.53564 8.95295 2.45805 8.95673 2.37678C8.96051 2.29551 8.93663 2.21536 8.88898 2.14938C8.84133 2.0834 8.77271 2.03549 8.69431 2.01346C8.61591 1.99142 8.53235 1.99656 8.45725 2.02803C6.94584 2.50031 5.58196 3.35408 4.49745 4.50684C3.41293 5.6596 2.64445 7.07235 2.2663 8.60852C1.88815 10.1447 1.91311 11.7524 2.33878 13.2761C2.76445 14.7998 3.57642 16.1881 4.69621 17.3067C5.816 18.4253 7.20573 19.2364 8.73107 19.6616C10.2564 20.0868 11.8658 20.1117 13.4036 19.734C14.9414 19.3562 16.3556 18.5886 17.5096 17.5052C18.6636 16.4218 19.5183 15.0594 19.9911 13.5496C20.0048 13.4893 20.0027 13.4265 19.985 13.3672C19.9673 13.3079 19.9347 13.2542 19.8901 13.2112Z" fill="black"/>
</svg>
