<?xml version="1.0" encoding="utf-8"?>
<!-- Generator: Adobe Illustrator 26.0.3, SVG Export Plug-In . SVG Version: 6.00 Build 0)  -->
<svg version="1.1" id="Layer_1" xmlns="http://www.w3.org/2000/svg" xmlns:xlink="http://www.w3.org/1999/xlink" x="0px" y="0px"
	 viewBox="0 0 47 47" style="enable-background:new 0 0 47 47;" xml:space="preserve">
<style type="text/css">
	.st0{fill:#231F20;}
</style>
<path class="st0" d="M23.7,0.5c12.8,0,23.3,10.4,23.3,23.3S36.5,47,23.7,47S0.4,36.6,0.4,23.7S10.8,0.5,23.7,0.5z M37.1,15.5
	c-1,0.4-2,0.7-3.1,0.9c1.1-0.7,2-1.7,2.4-3c-1.1,0.6-2.2,1.1-3.5,1.3c-1-1.1-2.4-1.7-4-1.7c-3,0-5.5,2.5-5.5,5.5
	c0,0.4,0,0.8,0.1,1.2c-4.5-0.2-8.6-2.4-11.3-5.7c-0.5,0.8-0.7,1.8-0.7,2.8c0,1.9,1,3.6,2.4,4.5c-0.9,0-1.7-0.3-2.5-0.7
	c0,0,0,0,0,0.1c0,2.7,1.9,4.9,4.4,5.4c-0.4,0.1-0.9,0.2-1.4,0.2c-0.3,0-0.7,0-1-0.1c0.7,2.2,2.7,3.8,5.1,3.8
	c-1.9,1.5-4.2,2.3-6.8,2.3c-0.4,0-0.9,0-1.3-0.1c2.4,1.6,5.3,2.4,8.4,2.4c10,0,15.5-8.3,15.5-15.5c0-0.2,0-0.5,0-0.7
	C35.4,17.5,36.4,16.6,37.1,15.5z"/>
</svg>
