<svg width="35" height="29" viewBox="0 0 35 29" fill="none" xmlns="http://www.w3.org/2000/svg">
<path d="M29.8309 7.61652L31.7437 4.76058L28.8577 6.03016C28.9908 5.75433 29.1051 5.46718 29.1991 5.17014L29.9939 2.65809L27.7325 4.01021C26.9069 4.50387 26.0051 4.8758 25.0444 5.11761C23.8832 4.08184 22.35 3.45557 20.6924 3.45557C17.07 3.45557 14.1608 6.40341 14.1608 10.008C14.1608 10.0621 14.1613 10.1162 14.1623 10.1703C10.3418 9.67456 6.98488 7.70559 4.65624 4.83728L3.73846 3.7068L3.01287 4.96927C2.45425 5.94122 2.12219 7.06288 2.12219 8.27341C2.12219 9.17386 2.30555 10.0334 2.63522 10.8154L2.08 10.509V12.203V12.2031V12.2031V12.2032V12.2033V12.2034V12.2035V12.2036V12.2037V12.2038V12.2039V12.204V12.2041V12.2043V12.2044V12.2045V12.2046V12.2047V12.2048V12.2049V12.205V12.2051V12.2052V12.2053V12.2054V12.2055V12.2056V12.2057V12.2058V12.2059V12.206V12.2061V12.2062V12.2063V12.2064V12.2065V12.2066V12.2067V12.2068V12.2069V12.207V12.2071V12.2072V12.2073V12.2074V12.2075V12.2076V12.2077V12.2078V12.2079V12.208V12.2082V12.2083V12.2084V12.2085V12.2086V12.2087V12.2088V12.2089V12.209V12.2091V12.2092V12.2093V12.2094V12.2095V12.2096V12.2097V12.2098V12.21V12.2101V12.2102V12.2103V12.2104V12.2105V12.2106V12.2107V12.2108V12.2109V12.211V12.2111V12.2112V12.2113V12.2115V12.2116V12.2117V12.2118V12.2119V12.212V12.2121V12.2122V12.2123V12.2124V12.2125V12.2126V12.2128V12.2129V12.213V12.2131V12.2132V12.2133V12.2134V12.2135V12.2136V12.2137V12.2138V12.214V12.2141V12.2142V12.2143V12.2144V12.2145V12.2146V12.2147V12.2148V12.215V12.2151V12.2152V12.2153V12.2154V12.2155V12.2156V12.2157V12.2158V12.216V12.2161V12.2162V12.2163V12.2164V12.2165V12.2166V12.2167V12.2169V12.217V12.2171V12.2172V12.2173V12.2174V12.2175V12.2176V12.2178V12.2179V12.218V12.2181V12.2182V12.2183V12.2184V12.2185V12.2187V12.2188V12.2189V12.219V12.2191V12.2192V12.2193V12.2195V12.2196V12.2197V12.2198V12.2199V12.22V12.2201V12.2203V12.2204V12.2205V12.2206V12.2207V12.2208V12.221V12.2211V12.2212V12.2213V12.2214V12.2215V12.2216V12.2218V12.2219V12.222V12.2221V12.2222V12.2223V12.2225V12.2226V12.2227V12.2228V12.2229V12.223V12.2232V12.2233V12.2234V12.2235V12.2236V12.2237V12.2239V12.224V12.2241V12.2242V12.2243V12.2245V12.2246V12.2247V12.2248V12.2249V12.225V12.2252V12.2253V12.2254V12.2255V12.2256V12.2257V12.2259V12.226V12.2261V12.2262V12.2263V12.2265V12.2266V12.2267V12.2268V12.2269V12.2271V12.2272V12.2273V12.2274V12.2275V12.2277V12.2278V12.2279V12.228V12.2281V12.2283V12.2284V12.2285V12.2286V12.2287V12.2289V12.229V12.2291V12.2292V12.2293V12.2295V12.2296V12.2297V12.2298V12.2299V12.2301V12.2302V12.2303V12.2304V12.2305V12.2307V12.2308V12.2309V12.231V12.2311V12.2313V12.2314V12.2315V12.2316V12.2318V12.2319V12.232V12.2321V12.2322V12.2324V12.2325V12.2326V12.2327V12.2328V12.233V12.2331V12.2332V12.2333V12.2335V12.2336V12.2337V12.2338V12.2339V12.2341V12.2342V12.2343V12.2344V12.2346V12.2347V12.2348V12.2349V12.2351V12.2352V12.2353V12.2354V12.2355V12.2357V12.2358V12.2359V12.236V12.2362V12.2363V12.2364V12.2365V12.2367V12.2368V12.2369V12.237V12.2372V12.2373V12.2374V12.2375V12.2376V12.2378V12.2379V12.238V12.2381V12.2383V12.2384V12.2385V12.2386V12.2388V12.2389V12.239V12.2391V12.2393V12.2394V12.2395V12.2396V12.2398V12.2399V12.24V12.2401V12.2403V12.2404V12.2405V12.2406V12.2408V12.2409V12.241V12.2411V12.2413V12.2414V12.2415V12.2416V12.2418V12.2419V12.242V12.2421V12.2423V12.2424V12.2425V12.2426V12.2428V12.2429V12.243V12.2432V12.2433V12.2434V12.2435V12.2437V12.2438V12.2439V12.244V12.2442V12.2443V12.2444V12.2445V12.2447V12.2448V12.2449V12.245V12.2452V12.2453V12.2454V12.2456V12.2457V12.2458V12.2459V12.2461V12.2462V12.2463V12.2464V12.2466V12.2467V12.2468V12.2469V12.2471V12.2472V12.2473V12.2475V12.2476V12.2477V12.2478V12.248V12.2481V12.2482V12.2483V12.2485V12.2486V12.2487V12.2489V12.249V12.2491V12.2492V12.2494V12.2495V12.2496V12.2497V12.2499V12.25V12.2501V12.2503V12.2504V12.2505V12.2506V12.2508V12.2509V12.251V12.2511V12.2513V12.2514V12.2515V12.2517V12.2518V12.2519V12.252V12.2522V12.2523V12.2524V12.2526V12.2527V12.2528V12.2529V12.2531V12.2532V12.2533V12.2535V12.2536V12.2537V12.2538V12.254V12.2541V12.2542V12.2544V12.2545V12.2546V12.2547V12.2549V12.255V12.2551V12.2552V12.2554V12.2555V12.2556V12.2558V12.2559V12.256V12.2561V12.2563V12.2564V12.2565V12.2567V12.2568V12.2569V12.257V12.2572V12.2573V12.2574V12.2576V12.2577V12.2578V12.2579V12.2581V12.2582V12.2583V12.2585V12.2586V12.2587V12.2588V12.259V12.2591V12.2592V12.2594V12.2595V12.2596V12.2598V12.2599V12.26V12.2601V12.2603V12.2604V12.2605V12.2607V12.2608V12.2609V12.261V12.2612V12.2613V12.2614V12.2616V12.2617V12.2618V12.2619V12.2621V12.2622V12.2623V12.2625V12.2626V12.2627V12.2628V12.263V12.2631V12.2632V12.2634V12.2635V12.2636V12.2637V12.2639C2.08 13.8658 2.65322 15.3306 3.60149 16.4683L3.52143 16.4506L4.06488 18.1163C4.63976 19.8785 5.9364 21.3276 7.61137 22.0907C6.31021 22.6988 4.85567 23.0406 3.32469 23.0406C2.90036 23.0406 2.50928 23.0216 2.12723 22.9726L1.45695 24.8042C4.06764 26.4926 7.16154 27.4556 10.4915 27.4556C21.3468 27.4556 27.246 18.4213 27.246 10.6596C27.246 10.5816 27.2452 10.5047 27.2438 10.4289C28.2565 9.63293 29.1172 8.68208 29.8309 7.61652Z" stroke="#CCD6F6" stroke-width="2"/>
</svg>
