<svg width="105" height="86" viewBox="0 0 105 86" fill="none" xmlns="http://www.w3.org/2000/svg">
<path d="M96 15.1156C92.5044 16.6615 88.7796 17.6862 84.8962 18.1838C88.8912 15.779 91.9404 12.0001 93.3739 7.44523C89.6491 9.68415 85.5366 11.2656 81.1539 12.1482C77.6171 8.35146 72.5764 6 67.0774 6C56.4084 6 47.8191 14.7306 47.8191 25.4336C47.8191 26.9736 47.9484 28.4544 48.2656 29.8641C32.2445 29.0763 18.0681 21.3348 8.54475 9.542C6.88212 12.4502 5.90688 15.779 5.90688 19.3625C5.90688 26.0911 9.34375 32.0556 14.4667 35.5088C11.3706 35.4495 8.33325 34.5433 5.76 33.1158C5.76 33.1751 5.76 33.2521 5.76 33.3291C5.76 42.7705 12.4399 50.6126 21.1995 52.4192C19.6309 52.8515 17.9212 53.0588 16.147 53.0588C14.9132 53.0588 13.6677 52.9878 12.4986 52.7272C14.9955 60.4212 22.0808 66.0778 30.5055 66.2614C23.949 71.4322 15.6241 74.5478 6.61188 74.5478C5.0315 74.5478 3.51575 74.4767 2 74.2812C10.5364 79.8312 20.6531 83 31.563 83C67.0245 83 86.412 53.3846 86.412 27.714C86.412 26.8552 86.3826 26.0259 86.3415 25.2026C90.1661 22.4662 93.3797 19.0485 96 15.1156Z" stroke="black" stroke-width="6"/>
</svg>
