<svg width="33" height="33" viewBox="0 0 33 33" fill="none" xmlns="http://www.w3.org/2000/svg">
<path d="M16.5 14.8609L3.28551 1.64645L2.93195 1.29289L2.5784 1.64645L1.64645 2.5784L1.29289 2.93195L1.64645 3.28551L14.8609 16.5L1.64645 29.7145L1.29289 30.068L1.64645 30.4216L2.5784 31.3536L2.93195 31.7071L3.28551 31.3536L16.5 18.1391L29.7145 31.3536L30.068 31.7071L30.4216 31.3536L31.3536 30.4216L31.7071 30.068L31.3536 29.7145L18.1391 16.5L31.3536 3.28551L31.7071 2.93195L31.3536 2.5784L30.4216 1.64645L30.068 1.29289L29.7145 1.64645L16.5 14.8609Z" fill="#CCD6F6" stroke="#CCD6F6"/>
</svg>
