<svg width="47" height="92" viewBox="0 0 47 92" fill="none" xmlns="http://www.w3.org/2000/svg">
<path d="M0 91.9628C4.63094 87.0265 8.86132 82.3579 13.153 77.8823C13.908 77.095 13.3433 77.3182 14.9964 77.2899C18.3316 77.2329 21.671 77.2899 25.0062 77.2548C28.6644 77.2241 32.4501 76.4643 33.8398 72.862C35.2295 69.2596 33.2953 65.026 30.8062 62.2924C28.9546 60.2565 27.1071 58.2161 25.137 56.0397L0.0572225 83.3388C0.0572225 82.3863 0.0572225 81.0854 0.0572225 80.4097C0.0408732 65.4165 -1.32142e-08 50.4233 0.10627 35.4302V33.4729L1.41013 32.034C5.289 27.6462 9.31501 23.39 13.6353 18.717V47.4437C13.6353 47.4437 13.6948 47.3761 15.1108 45.86C20.3181 40.2846 25.5185 34.7004 30.7121 29.1074C33.3362 26.2772 34.5849 22.3301 33.8398 18.717C32.9316 14.7379 27.934 12.5049 25.2736 12.0583C23.3176 11.7299 21.8328 11.7027 19.9528 11.7027L22.8073 8.96291C25.133 6.49696 27.4995 4.06611 29.7148 1.50362L31.02 0L32.9316 0.801573C47.0614 6.42675 51.6801 26.3167 41.5395 38.313C39.4468 40.7877 36.9903 42.907 34.4071 45.487C36.7573 47.9003 38.7928 49.831 40.6525 51.9327C51.8027 64.5433 47.6296 84.7492 32.6291 90.5675C30.4533 91.4023 28.1665 91.8557 25.8564 91.9101C17.7553 92.0681 9.64608 91.9716 1.54501 91.9628C1.2262 91.9628 0.895938 91.9628 0 91.9628Z" fill="#465267"/>
</svg>
