<svg width="20" height="28" viewBox="0 0 20 28" fill="none" xmlns="http://www.w3.org/2000/svg">
<path d="M16.9213 11.6905L17.5074 10.3017H16H12.3333V7.8882C12.3796 7.88432 12.4356 7.8811 12.5033 7.87909C12.6363 7.87514 12.7674 7.87613 12.9229 7.87732C13.0068 7.87795 13.0978 7.87864 13.2 7.87864H15.0667H16.0667V6.87864V2.45557V1.45557H15.0667H11.3333C7.73917 1.45557 4.73333 4.22952 4.73333 7.76326V10.3017H2H1V11.3017V15.7248V16.7248H2H4.73333V25.4556V26.4556H5.73333H11.3333H12.3333V25.4556V16.7248H14.1333H14.7967L15.0546 16.1136L16.9213 11.6905Z" stroke="#CCD6F6" stroke-width="2"/>
</svg>
