<svg width="23" height="24" viewBox="0 0 23 24" fill="none" xmlns="http://www.w3.org/2000/svg">
<path d="M8.45948 24C8.45948 23.6325 8.4461 22.6608 8.43846 21.3717C4.18675 22.3049 3.28863 19.2994 3.28863 19.2994C2.59498 17.5139 1.59177 17.0386 1.59177 17.0386C0.202554 16.0804 1.69495 16.0996 1.69495 16.0996C3.22939 16.2093 4.03579 17.6928 4.03579 17.6928C5.40016 20.0537 7.61487 19.3725 8.48623 18.9762C8.62382 17.9776 9.01937 17.2964 9.45696 16.9097C6.06323 16.5191 2.4937 15.1934 2.4937 9.27293C2.4937 7.58549 3.0899 6.20591 4.06827 5.12456C3.90967 4.73397 3.38609 3.16198 4.21732 1.03584C4.21732 1.03584 5.50143 0.620239 8.42126 2.61938C9.64041 2.27689 10.9475 2.10565 12.2488 2.09987C13.5463 2.10757 14.8552 2.27689 16.0763 2.62131C18.9942 0.622163 20.2764 1.03777 20.2764 1.03777C21.1095 3.16583 20.5859 4.73589 20.4293 5.12649C21.4095 6.20783 22 7.58741 22 9.27485C22 15.2107 18.4266 16.5172 15.0215 16.9001C15.5699 17.3772 16.0591 18.3201 16.0591 19.7612C16.0591 21.8277 16.04 23.494 16.04 24" stroke="#CCD6F6" stroke-width="2"/>
</svg>
