<svg width="31" height="30" viewBox="0 0 31 30" fill="none" xmlns="http://www.w3.org/2000/svg">
<path d="M8.76287 10.8438V9.84375H7.76287H2.24854H1.24854V10.8438V27.7967V28.7967H2.24854H7.76287H8.76287V27.7967V10.8438Z" stroke="#CCD6F6" stroke-width="2"/>
<path d="M22.5325 9.84375C20.4242 9.84375 18.7719 10.7084 17.6066 11.6316V10.8438V9.84375H16.6066H11.0923H10.0923V10.8438V27.7967V28.7967H11.0923H16.6066H17.6066V27.7967V18.8866C17.7131 18.7514 17.8599 18.571 18.0376 18.3682C18.4332 17.9164 18.9532 17.3859 19.4985 16.989C20.0779 16.5674 20.5123 16.4241 20.7783 16.4471C20.9044 16.4581 21.2059 16.5198 21.5325 17.2176V17.235V17.258V17.2811V17.3043V17.3275V17.3508V17.3742V17.3976V17.4211V17.4447V17.4683V17.492V17.5158V17.5396V17.5635V17.5874V17.6114V17.6355V17.6596V17.6838V17.708V17.7323V17.7567V17.7811V17.8056V17.8301V17.8547V17.8794V17.9041V17.9288V17.9536V17.9785V18.0034V18.0284V18.0534V18.0785V18.1037V18.1289V18.1541V18.1794V18.2047V18.2301V18.2555V18.281V18.3066V18.3322V18.3578V18.3835V18.4092V18.435V18.4608V18.4867V18.5126V18.5385V18.5645V18.5906V18.6167V18.6428V18.669V18.6952V18.7214V18.7477V18.774V18.8004V18.8268V18.8533V18.8798V18.9063V18.9329V18.9595V18.9861V19.0128V19.0395V19.0663V19.0931V19.1199V19.1467V19.1736V19.2006V19.2275V19.2545V19.2815V19.3086V19.3356V19.3628V19.3899V19.4171V19.4443V19.4715V19.4988V19.526V19.5533V19.5807V19.6081V19.6354V19.6629V19.6903V19.7178V19.7453V19.7728V19.8003V19.8279V19.8555V19.8831V19.9107V19.9383V19.966V19.9937V20.0214V20.0491V20.0769V20.1046V20.1324V20.1602V20.188V20.2158V20.2437V20.2716V20.2994V20.3273V20.3552V20.3832V20.4111V20.439V20.467V20.495V20.5229V20.5509V20.5789V20.607V20.635V20.663V20.6911V20.7191V20.7472V20.7752V20.8033V20.8314V20.8595V20.8875V20.9156V20.9437V20.9718V20.9999V21.0281V21.0562V21.0843V21.1124V21.1405V21.1686V21.1968V21.2249V21.253V21.2811V21.3092V21.3373V21.3655V21.3936V21.4217V21.4498V21.4779V21.506V21.5341V21.5621V21.5902V21.6183V21.6464V21.6744V21.7025V21.7305V21.7586V21.7866V21.8146V21.8426V21.8706V21.8986V21.9266V21.9545V21.9825V22.0104V22.0383V22.0662V22.0941V22.122V22.1499V22.1777V22.2056V22.2334V22.2612V22.289V22.3167V22.3445V22.3722V22.3999V22.4276V22.4553V22.4829V22.5106V22.5382V22.5658V22.5933V22.6209V22.6484V22.6759V22.7034V22.7308V22.7583V22.7856V22.813V22.8404V22.8677V22.895V22.9222V22.9495V22.9767V23.0039V23.031V23.0581V23.0852V23.1123V23.1393V23.1663V23.1933V23.2202V23.2471V23.274V23.3008V23.3276V23.3543V23.3811V23.4078V23.4344V23.461V23.4876V23.5141V23.5406V23.5671V23.5935V23.6199V23.6463V23.6726V23.6988V23.7251V23.7512V23.7774V23.8035V23.8295V23.8555V23.8815V23.9074V23.9333V23.9591V23.9849V24.0107V24.0364V24.062V24.0876V24.1132V24.1387V24.1641V24.1895V24.2149V24.2402V24.2654V24.2906V24.3158V24.3409V24.3659V24.3909V24.4158V24.4407V24.4655V24.4903V24.515V24.5397V24.5643V24.5889V24.6134V24.6378V24.6622V24.6865V24.7107V24.7349V24.7591V24.7832V24.8072V24.8311V24.855V24.8789V24.9026V24.9263V24.95V24.9736V24.9971V25.0205V25.0439V25.0672V25.0905V25.1137V25.1368V25.1599V25.1828V25.2058V25.2286V25.2514V25.2741V25.2967V25.3193V25.3418V25.3642V25.3866V25.4088V25.431V25.4532V25.4752V25.4972V25.5191V25.541V25.5627V25.5844V25.606V25.6275V25.649V25.6704V25.6916V25.7129V25.734V25.7551V25.776V25.7969V25.8177V25.8385V25.8591V25.8797V25.9002V25.9206V25.9409V25.9611V25.9813V26.0013V26.0213V26.0412V26.061V26.0807V26.1003V26.1199V26.1393V26.1587V26.1779V26.1971V26.2162V26.2352V26.2541V26.273V26.2917V26.3103V26.3289V26.3473V26.3657V26.3839V26.4021V26.4201V26.4381V26.456V26.4738V26.4915V26.509V26.5265V26.5439V26.5612V26.5784V26.5955V26.6125V26.6294V26.6462V26.6628V26.6794V26.6959V26.7123V26.7286V26.7447V26.7608V26.7768V26.7926V26.8084V26.824V26.8396V26.855V26.8703V26.8855V26.9006V26.9156V26.9305V26.9453V26.96V26.9745V26.989V27.0033V27.0175V27.0316V27.0456V27.0595V27.0733V27.0869V27.1005V27.1139V27.1272V27.1404V27.1535V27.1664V27.1793V27.192V27.2046V27.2171V27.2294V27.2417V27.2538V27.2658V27.2777V27.2895V27.3011V27.3126V27.324V27.3353V27.3464V27.3575V27.3684V27.3791V27.3898V27.4003V27.4107V27.421V27.4311V27.4411V27.451V27.4607V27.4704V27.4799V27.4892V27.4985V27.5076V27.5165V27.5254V27.5341V27.5427V27.5511V27.5594V27.5676V27.5756V27.5835V27.5913V27.5989V27.6064V27.6137V27.621V27.628V27.635V27.6418V27.6485V27.655V27.6614V27.6676V27.6737V27.6797V27.6855V27.6911V27.6967V27.7021V27.7073V27.7124V27.7174V27.7222V27.7268V27.7314V27.7357V27.74V27.744V27.748V27.7517V27.7554V27.7588V27.7622V27.7654V27.7684V27.7713V27.774V27.7766V27.779V27.7813V27.7834V27.7853V27.7871V27.7888V27.7903V27.7916V27.7928V27.7939V27.7947V27.7954V27.796V27.7964V27.7966L22.5325 27.7967H21.5325V28.7967H22.5325H28.0453H29.0453V27.7967V16.3565C29.0453 13.3338 26.9808 10.8219 24.2043 10.0831C24.1662 10.0705 24.0757 10.0408 24.0105 10.0229L23.9897 10.0172L23.9687 10.0123C23.8756 9.991 23.786 9.9741 23.7007 9.95991C23.3602 9.8927 22.9784 9.84375 22.5325 9.84375Z" stroke="#CCD6F6" stroke-width="2"/>
<path d="M4.9456 8.39413C6.98743 8.39413 8.64266 6.73889 8.64266 4.69706C8.64266 2.65523 6.98743 1 4.9456 1C2.90377 1 1.24854 2.65523 1.24854 4.69706C1.24854 6.73889 2.90377 8.39413 4.9456 8.39413Z" stroke="#CCD6F6" stroke-width="2"/>
</svg>
