<svg width="443" height="856" viewBox="0 0 443 856" fill="none" xmlns="http://www.w3.org/2000/svg">
<path d="M0 855.7L124 724.7C131.1 717.4 125.8 719.5 141.4 719.2L235.7 718.9C270.2 718.6 305.9 711.5 319 678C332.1 644.5 313.9 605.1 290.4 579.7L237 521.5L0.5 775.4V748.1L1 329.7V311.5L13.3 298.1C49.9 257.3 87.8 217.7 128.5 174.2V441.5C128.5 441.5 129.1 440.9 142.4 426.8L289.5 270.9C314.2 244.6 332.1 206.2 319 174.2C305.3 140.9 264.6 128.9 230.4 128.6C210.4 128.4 186.1 128.6 168.4 128.6C182.4 114.3 201.2 98.0001 215 83.5001C236.9 60.6001 259.2 37.9001 280.1 14.1001L292.4 0.100098L310.4 7.6001C443.6 59.9001 487.1 245 391.5 356.6C371.8 379.6 348.6 399.3 324.3 423.4C346.5 445.9 365.6 463.8 383.2 483.4C488.3 600.7 449 788.7 307.6 842.9C287.1 850.7 265.5 854.9 243.8 855.4C167.4 856.9 91 856 14.7 855.9C11.6 855.7 8.4 855.7 0 855.7H0Z" fill="white"/>
</svg>
