<svg xmlns="http://www.w3.org/2000/svg" viewBox="0 0 443 856" xmlns:v="https://vecta.io/nano"><path d="M0 855.7l124-131c7.1-7.3 1.8-5.2 17.4-5.5l94.3-.3c34.5-.3 70.2-7.4 83.3-40.9s-5.1-72.9-28.6-98.3L237 521.5.5 775.4v-27.3L1 329.7v-18.2l12.3-13.4c36.6-40.8 74.5-80.4 115.2-123.9v267.3s.6-.6 13.9-14.7l147.1-155.9c24.7-26.3 42.6-64.7 29.5-96.7-13.7-33.3-54.4-45.3-88.6-45.6-20-.2-44.3 0-62 0 14-14.3 32.8-30.6 46.6-45.1 21.9-22.9 44.2-45.6 65.1-69.4l12.3-14 18 7.5c133.2 52.3 176.7 237.4 81.1 349-19.7 23-42.9 42.7-67.2 66.8 22.2 22.5 41.3 40.4 58.9 60 105.1 117.3 65.8 305.3-75.6 359.5-20.5 7.8-42.1 12-63.8 12.5-76.4 1.5-152.8.6-229.1.5-3.1-.2-6.3-.2-14.7-.2z"/></svg>