<svg width="38" height="73" viewBox="0 0 38 73" fill="none" xmlns="http://www.w3.org/2000/svg">
<path d="M0 72.9705C3.74416 69.0536 7.16447 65.3492 10.6343 61.7979C11.2448 61.1732 10.7882 61.3503 12.1247 61.3279C14.8213 61.2826 17.5212 61.3279 20.2178 61.3C23.1755 61.2757 26.2363 60.6728 27.3599 57.8144C28.4834 54.956 26.9196 51.5967 24.9071 49.4277C23.4101 47.8122 21.9164 46.1932 20.3236 44.4663L0.046265 66.1275C0.046265 65.3718 0.046265 64.3395 0.046265 63.8033C0.0330464 51.9066 -1.06839e-08 40.0098 0.0859208 28.1131V26.56L1.1401 25.4183C4.27621 21.9367 7.53129 18.5595 11.0243 14.8515V37.6456C11.0243 37.6456 11.0724 37.5919 12.2173 36.3889C16.4274 31.9649 20.632 27.534 24.8311 23.0961C26.9527 20.8504 27.9623 17.7184 27.3599 14.8515C26.6255 11.6942 22.5849 9.92233 20.434 9.56796C18.8526 9.30742 17.6521 9.28581 16.1321 9.28581L18.4399 7.11187C20.3203 5.15519 22.2336 3.22637 24.0248 1.19309L25.08 0L26.6255 0.636031C38.0497 5.09949 41.7839 20.8817 33.5851 30.4005C31.8931 32.3642 29.907 34.0458 27.8185 36.093C29.7187 38.0079 31.3644 39.5398 32.868 41.2075C41.8831 51.2137 38.509 67.2467 26.381 71.8633C24.6218 72.5257 22.7729 72.8855 20.9052 72.9287C14.3554 73.054 7.79896 72.9774 1.24916 72.9705C0.991393 72.9705 0.724375 72.9705 0 72.9705Z" fill="#8892B0"/>
</svg>
