<svg width="48" height="47" viewBox="0 0 48 47" fill="none" xmlns="http://www.w3.org/2000/svg">
<circle cx="23.9543" cy="23.7453" r="23.2541" fill="#465267"/>
<path d="M29.1414 9.68445H18.6426C13.8114 9.68445 9.89355 13.6023 9.89355 18.4334V28.9322C9.89355 33.7634 13.8114 37.6812 18.6426 37.6812H29.1414C33.9726 37.6812 37.8904 33.7634 37.8904 28.9322V18.4334C37.8904 13.6023 33.9726 9.68445 29.1414 9.68445ZM35.2657 28.9322C35.2657 32.3094 32.5185 35.0565 29.1414 35.0565H18.6426C15.2654 35.0565 12.5183 32.3094 12.5183 28.9322V18.4334C12.5183 15.0563 15.2654 12.3091 18.6426 12.3091H29.1414C32.5185 12.3091 35.2657 15.0563 35.2657 18.4334V28.9322Z" fill="#0E121A"/>
<path d="M23.8918 16.6844C20.0265 16.6844 16.8926 19.8183 16.8926 23.6836C16.8926 27.549 20.0265 30.6828 23.8918 30.6828C27.7571 30.6828 30.891 27.549 30.891 23.6836C30.891 19.8183 27.7571 16.6844 23.8918 16.6844ZM23.8918 28.0581C21.4806 28.0581 19.5173 26.0949 19.5173 23.6836C19.5173 21.2707 21.4806 19.3091 23.8918 19.3091C26.303 19.3091 28.2663 21.2707 28.2663 23.6836C28.2663 26.0949 26.303 28.0581 23.8918 28.0581Z" fill="#0E121A"/>
<path d="M31.416 17.0914C31.9311 17.0914 32.3487 16.6738 32.3487 16.1587C32.3487 15.6436 31.9311 15.2261 31.416 15.2261C30.901 15.2261 30.4834 15.6436 30.4834 16.1587C30.4834 16.6738 30.901 17.0914 31.416 17.0914Z" fill="#0E121A"/>
</svg>
