<svg width="47" height="47" viewBox="0 0 47 47" fill="none" xmlns="http://www.w3.org/2000/svg">
<circle cx="23.6545" cy="23.7453" r="23.2541" fill="#465267"/>
<path d="M37.1002 15.4545C36.1101 15.8888 35.0552 16.1767 33.9553 16.3165C35.0868 15.6409 35.9504 14.5793 36.3564 13.2997C35.3015 13.9287 34.1367 14.373 32.8953 14.6209C31.8936 13.5543 30.4659 12.8937 28.9084 12.8937C25.8867 12.8937 23.4539 15.3464 23.4539 18.3532C23.4539 18.7858 23.4905 19.2018 23.5804 19.5978C19.0427 19.3765 15.0275 17.2017 12.3302 13.8887C11.8593 14.7057 11.5831 15.6409 11.5831 16.6476C11.5831 18.5379 12.5565 20.2135 14.0075 21.1836C13.1306 21.167 12.2703 20.9124 11.5415 20.5114C11.5415 20.528 11.5415 20.5496 11.5415 20.5713C11.5415 23.2237 13.4335 25.4268 15.9144 25.9343C15.4702 26.0557 14.9859 26.114 14.4834 26.114C14.134 26.114 13.7812 26.094 13.4501 26.0208C14.1573 28.1823 16.164 29.7714 18.5502 29.823C16.6932 31.2756 14.3353 32.1509 11.7828 32.1509C11.3352 32.1509 10.9059 32.1309 10.4766 32.076C12.8943 33.6352 15.7597 34.5254 18.8497 34.5254C28.8935 34.5254 34.3846 26.2055 34.3846 18.9938C34.3846 18.7525 34.3763 18.5196 34.3646 18.2883C35.4479 17.5195 36.3581 16.5594 37.1002 15.4545Z" fill="#0E121A"/>
</svg>
