<svg width="48" height="47" viewBox="0 0 48 47" fill="none" xmlns="http://www.w3.org/2000/svg">
<circle cx="24.0051" cy="23.7453" r="23.2541" fill="#465267"/>
<path d="M34.4419 15.7438L26.5082 21.7402L25.2064 22.7264C24.5167 23.2591 23.5753 23.2591 22.8857 22.7264L21.5838 21.7402L13.6406 15.7536C14.0824 15.1077 14.7961 14.7254 15.5557 14.7279H32.5363C33.2903 14.7286 33.9986 15.1062 34.4419 15.7438Z" fill="#0E121A"/>
<path d="M12.891 16.969L21.4163 23.4096L13.1542 32.0679C12.6798 31.5695 12.4139 30.8939 12.4151 30.1898V18.5182C12.4128 17.9619 12.5795 17.4194 12.891 16.969Z" fill="#0E121A"/>
<path d="M35.6439 18.5277V30.1912C35.645 30.8947 35.3792 31.5699 34.9047 32.0679L26.6426 23.4157L35.1578 16.969C35.474 17.4212 35.6442 17.9672 35.6439 18.5277Z" fill="#0E121A"/>
<path d="M26.7039 23.3562L25.2901 24.4014C24.5411 24.9659 23.5188 24.9659 22.7698 24.4014L21.356 23.3562L12.9961 31.8849C13.4773 32.3746 14.1297 32.6491 14.8095 32.6478H17.3963H24.438H30.6625H33.2504C33.9302 32.6491 34.5825 32.3746 35.0638 31.8849L26.7039 23.3562Z" fill="#0E121A"/>
</svg>
